<?xml version="1.0" encoding="UTF-8"?> <svg xmlns="http://www.w3.org/2000/svg" width="259" height="90" viewBox="0 0 259 90" fill="currentColor"><path d="M15.9278 37.1383L64.2278 74.1559L72.1338 13.8161L15.9278 37.1383ZM65.0758 88.257L2.08977 39.9923C1.34618 39.4221 0.765712 38.666 0.406652 37.8004C0.0475907 36.9349 -0.0774124 35.9898 0.0441791 35.0607C0.165771 34.1315 0.529676 33.251 1.09937 32.507C1.66906 31.7629 2.42449 31.1816 3.28978 30.8219L76.5838 0.409315C77.4498 0.0505129 78.395 -0.0741954 79.3243 0.0479865C80.2537 0.170168 81.1346 0.534677 81.8784 1.10512C82.6222 1.67555 83.2028 2.4316 83.5619 3.2975C83.9209 4.16339 84.0457 5.10881 83.9238 6.03822L73.6138 84.7169C73.4918 85.646 73.1275 86.527 72.5574 87.2706C71.9873 88.0143 71.2315 88.5947 70.3659 88.9538C69.5003 89.3128 68.5555 89.4378 67.6264 89.3161C66.6973 89.1943 65.8166 88.8299 65.0728 88.2599"></path><path d="M123.853 47.23C123.853 42.516 120.712 39.561 116.374 39.561C112.036 39.561 108.895 42.516 108.895 47.23C108.895 51.944 112.038 54.8989 116.374 54.8989C120.71 54.8989 123.853 51.945 123.853 47.23ZM133.281 31.5171V62.9448H123.853V59.9897C121.778 62.3797 118.7 63.8228 114.488 63.8228C106.254 63.8228 99.4668 56.594 99.4668 47.23C99.4668 37.866 106.255 30.6357 114.488 30.6357C118.7 30.6357 121.779 32.0837 123.853 34.4697V31.5171H133.281Z"></path><path d="M148.055 17.0601H138.627V62.9441H148.055V17.0601Z"></path><path d="M177.786 47.23C177.786 42.516 174.643 39.561 170.305 39.561C165.967 39.561 162.826 42.516 162.826 47.23C162.826 51.944 165.969 54.896 170.305 54.896C174.641 54.896 177.786 51.945 177.786 47.23ZM187.214 47.23C187.214 56.594 180.424 63.8247 172.191 63.8247C167.979 63.8247 164.9 62.3797 162.826 59.9897V75.5146H153.398V31.5146H162.826V34.4678C164.901 32.0788 167.979 30.6338 172.191 30.6338C180.425 30.6338 187.214 37.863 187.214 47.228"></path><path d="M221.156 43.646V62.9458H211.728V45.0332C211.728 41.1332 209.278 39.312 206.261 39.312C202.803 39.312 200.414 41.3232 200.414 45.7842V62.9458H190.986V18.9458H200.414V34.4668C202.114 32.1418 205.255 30.6328 209.404 30.6328C215.749 30.6328 221.156 35.159 221.156 43.644"></path><path d="M248.877 47.23C248.877 42.516 245.734 39.561 241.396 39.561C237.058 39.561 233.917 42.516 233.917 47.23C233.917 51.944 237.06 54.8989 241.396 54.8989C245.732 54.8989 248.877 51.945 248.877 47.23ZM258.305 31.5171V62.9448H248.877V59.9897C246.802 62.3797 243.722 63.8228 239.512 63.8228C231.278 63.8228 224.489 56.594 224.489 47.23C224.489 37.866 231.279 30.6357 239.512 30.6357C243.722 30.6357 246.803 32.0837 248.877 34.4697V31.5171H258.305Z"></path></svg> 