<?xml version="1.0" encoding="UTF-8"?> <svg xmlns="http://www.w3.org/2000/svg" width="1052" height="401" viewBox="0 0 1052 401" fill="none"><path d="M352.886 199.233L196.954 44.5269L162.341 78.8463L41 199.233L48.6461 206.819L196.954 353.961L204.6 346.375L352.886 199.233ZM221.69 313.839C221.149 314.312 220.585 314.742 220.022 315.171C219.654 315.451 219.264 315.752 218.896 316.01C218.376 316.375 217.813 316.74 217.271 317.084C216.817 317.363 216.362 317.643 215.885 317.922C215.365 318.223 214.824 318.502 214.304 318.782C213.784 319.061 213.243 319.297 212.701 319.555C212.181 319.792 211.661 320.028 211.142 320.243C210.535 320.479 209.929 320.694 209.3 320.909C208.802 321.081 208.304 321.253 207.784 321.404C207.113 321.597 206.398 321.769 205.705 321.941C205.228 322.048 204.773 322.177 204.275 322.263C203.474 322.414 202.672 322.521 201.849 322.628C201.459 322.671 201.048 322.757 200.658 322.8C199.423 322.929 198.189 322.994 196.932 322.994C195.676 322.994 194.441 322.929 193.207 322.8C192.795 322.757 192.405 322.693 192.015 322.628C191.192 322.521 190.391 322.414 189.59 322.263C189.113 322.177 188.636 322.048 188.16 321.941C187.467 321.769 186.774 321.618 186.081 321.404C185.561 321.253 185.063 321.081 184.564 320.909C183.958 320.694 183.33 320.479 182.723 320.243C182.203 320.028 181.684 319.792 181.164 319.577C180.622 319.34 180.081 319.083 179.561 318.803C179.019 318.524 178.499 318.244 177.98 317.944C177.503 317.664 177.048 317.385 176.593 317.106C176.052 316.762 175.51 316.396 174.969 316.031C174.579 315.752 174.211 315.472 173.821 315.193C173.258 314.763 172.695 314.333 172.153 313.861C171.871 313.624 171.59 313.345 171.308 313.108C170.723 312.571 170.139 312.034 169.575 311.454C169.424 311.282 169.272 311.11 169.099 310.938C163.944 305.436 160.435 298.409 159.308 290.63C159.308 290.587 159.287 290.544 159.287 290.501C175.684 288.588 189.568 278.638 196.889 264.734C204.21 278.638 218.094 288.61 234.491 290.501C234.491 290.544 234.47 290.587 234.47 290.63C233.343 298.409 229.834 305.436 224.679 310.938C224.528 311.11 224.376 311.282 224.224 311.454C223.661 312.034 223.076 312.571 222.492 313.108C222.253 313.323 221.993 313.581 221.69 313.839ZM321.327 204.111C321.219 204.928 321.111 205.745 320.959 206.518C320.872 206.991 320.743 207.464 320.634 207.915C320.461 208.603 320.309 209.29 320.093 209.978C319.941 210.472 319.768 210.967 319.595 211.461C319.378 212.084 319.161 212.686 318.923 213.288C318.706 213.803 318.468 214.319 318.252 214.835C317.992 215.372 317.753 215.909 317.472 216.447C317.19 216.984 316.909 217.5 316.605 218.015C316.324 218.488 316.042 218.939 315.761 219.391C315.414 219.928 315.046 220.465 314.678 221.002C314.396 221.389 314.115 221.755 313.833 222.141C313.4 222.7 312.966 223.259 312.49 223.796C312.252 224.075 311.97 224.355 311.71 224.634C311.169 225.214 310.627 225.795 310.042 226.353C309.869 226.504 309.696 226.654 309.523 226.826C303.978 231.941 296.895 235.422 289.054 236.54C289.01 236.54 288.967 236.561 288.924 236.561C286.996 220.293 276.967 206.518 262.953 199.255C276.967 191.991 287.017 178.216 288.924 161.948C288.967 161.948 289.01 161.969 289.054 161.969C296.895 163.087 303.978 166.568 309.523 171.683C309.696 171.833 309.869 171.984 310.021 172.134C310.606 172.693 311.147 173.273 311.689 173.853C311.948 174.133 312.208 174.412 312.447 174.692C312.923 175.229 313.356 175.788 313.79 176.346C314.071 176.712 314.374 177.098 314.634 177.464C315.003 177.98 315.371 178.538 315.717 179.076C315.999 179.527 316.281 179.978 316.562 180.451C316.865 180.967 317.147 181.504 317.429 182.02C317.71 182.535 317.948 183.073 318.208 183.61C318.447 184.126 318.685 184.641 318.901 185.157C319.14 185.759 319.356 186.361 319.573 186.984C319.746 187.478 319.919 187.972 320.071 188.488C320.266 189.154 320.439 189.863 320.613 190.551C320.721 191.024 320.851 191.475 320.938 191.969C321.089 192.765 321.197 193.56 321.306 194.376C321.349 194.785 321.436 195.171 321.479 195.558C321.609 196.783 321.674 198.008 321.674 199.255C321.674 200.501 321.609 201.747 321.479 202.951C321.436 203.338 321.371 203.724 321.327 204.111ZM277.92 247.457C275.603 264.09 262.325 277.263 245.538 279.584C245.538 279.541 245.516 279.498 245.516 279.477C245.365 278.144 245.148 276.812 244.867 275.522C244.867 275.479 244.845 275.436 244.845 275.394C244 271.375 242.657 267.528 240.881 263.939C240.881 263.939 240.881 263.918 240.859 263.918C240.275 262.757 239.668 261.618 238.997 260.501C238.953 260.436 238.91 260.372 238.888 260.308C238.239 259.233 237.545 258.18 236.809 257.149C236.744 257.063 236.701 256.998 236.636 256.912C235.899 255.902 235.119 254.914 234.296 253.947C234.253 253.882 234.188 253.839 234.145 253.775C233.3 252.808 232.434 251.862 231.524 250.938C229.661 249.09 227.625 247.392 225.481 245.845C225.437 245.823 225.394 245.78 225.351 245.759C224.333 245.028 223.271 244.341 222.188 243.696C222.102 243.631 221.993 243.588 221.907 243.524C220.845 242.901 219.741 242.299 218.614 241.762C218.506 241.719 218.398 241.654 218.289 241.611C217.163 241.074 216.015 240.558 214.824 240.107C214.737 240.064 214.65 240.043 214.564 240.021C213.351 239.548 212.116 239.118 210.838 238.753H210.817C208.217 237.979 205.51 237.442 202.737 237.098C202.716 237.098 202.672 237.098 202.651 237.077C204.968 220.444 218.246 207.27 235.033 204.949C235.033 204.971 235.033 205.014 235.054 205.035C235.379 207.786 235.943 210.451 236.701 213.051V213.073C237.069 214.319 237.502 215.544 237.979 216.769C238.022 216.855 238.044 216.941 238.087 217.027C238.542 218.187 239.062 219.348 239.603 220.465C239.646 220.573 239.711 220.68 239.755 220.788C240.318 221.905 240.903 222.979 241.531 224.033C241.596 224.118 241.639 224.226 241.704 224.312C242.354 225.386 243.047 226.439 243.784 227.449C243.805 227.492 243.849 227.535 243.892 227.578C245.43 229.706 247.141 231.704 249.004 233.553C249.004 233.553 249.004 233.553 249.025 233.574C249.935 234.477 250.888 235.336 251.863 236.174C251.928 236.217 251.971 236.282 252.036 236.325C252.989 237.141 253.986 237.894 255.025 238.624C255.112 238.689 255.177 238.732 255.264 238.796C256.303 239.527 257.343 240.214 258.426 240.859C258.491 240.902 258.556 240.945 258.621 240.967C259.747 241.633 260.874 242.256 262.043 242.815C262.043 242.815 262.065 242.815 262.065 242.836C265.682 244.598 269.559 245.931 273.61 246.747C273.653 246.747 273.696 246.769 273.74 246.769C275.039 247.027 276.382 247.242 277.725 247.414C277.834 247.435 277.877 247.457 277.92 247.457ZM234.448 279.477C218.181 276.962 205.315 264.219 202.781 248.08C203.387 248.166 203.994 248.295 204.6 248.424C204.968 248.51 205.358 248.553 205.705 248.639C206.744 248.875 207.763 249.176 208.759 249.498C209.127 249.627 209.474 249.777 209.842 249.906C210.492 250.143 211.12 250.358 211.748 250.637C212.203 250.83 212.636 251.045 213.069 251.26C213.589 251.497 214.087 251.733 214.586 251.991C215.062 252.249 215.517 252.507 215.972 252.765C216.405 253.022 216.838 253.28 217.271 253.538C217.748 253.839 218.224 254.161 218.701 254.484C219.069 254.742 219.437 255 219.784 255.279C220.282 255.644 220.759 256.031 221.235 256.418C221.517 256.654 221.798 256.912 222.08 257.149C222.6 257.6 223.098 258.051 223.596 258.545C223.769 258.717 223.921 258.889 224.094 259.061C229.509 264.52 233.213 271.59 234.448 279.477ZM157.229 256.912C157.164 256.998 157.121 257.063 157.056 257.149C156.319 258.18 155.626 259.212 154.976 260.308C154.933 260.372 154.89 260.436 154.868 260.501C154.197 261.618 153.568 262.736 153.005 263.918C153.005 263.918 153.005 263.939 152.984 263.939C151.208 267.528 149.865 271.375 149.041 275.394C149.041 275.436 149.02 275.479 149.02 275.522C148.76 276.812 148.543 278.144 148.37 279.477C148.37 279.52 148.348 279.563 148.348 279.584C131.583 277.285 118.306 264.111 115.966 247.457C116.01 247.457 116.053 247.435 116.075 247.435C117.417 247.285 118.739 247.07 120.06 246.79C120.103 246.79 120.147 246.769 120.19 246.769C124.24 245.931 128.118 244.598 131.735 242.836C131.735 242.836 131.757 242.836 131.757 242.815C132.926 242.234 134.074 241.633 135.201 240.967C135.266 240.924 135.331 240.881 135.396 240.859C136.479 240.214 137.54 239.527 138.558 238.796C138.645 238.732 138.71 238.689 138.796 238.624C139.814 237.894 140.811 237.12 141.785 236.325C141.85 236.282 141.894 236.217 141.959 236.174C142.933 235.336 143.886 234.477 144.818 233.574C146.681 231.726 148.392 229.706 149.951 227.578C149.973 227.535 150.016 227.492 150.038 227.449C150.774 226.439 151.467 225.386 152.117 224.312C152.182 224.226 152.226 224.118 152.291 224.033C152.919 222.979 153.525 221.883 154.067 220.766C154.11 220.659 154.175 220.551 154.218 220.444C154.76 219.326 155.28 218.187 155.735 217.005C155.778 216.919 155.799 216.833 155.843 216.747C156.319 215.544 156.753 214.319 157.121 213.051V213.03C157.901 210.451 158.442 207.765 158.767 205.014C158.767 204.992 158.767 204.949 158.789 204.928C175.554 207.227 188.831 220.401 191.171 237.055C191.149 237.055 191.106 237.055 191.084 237.077C188.312 237.399 185.626 237.958 183.005 238.71H182.983C181.727 239.075 180.492 239.505 179.258 239.978C179.171 240.021 179.084 240.043 178.998 240.085C177.828 240.537 176.68 241.053 175.532 241.59C175.424 241.633 175.315 241.697 175.207 241.74C174.081 242.299 172.998 242.879 171.936 243.502C171.85 243.567 171.741 243.61 171.655 243.674C170.572 244.319 169.51 245.007 168.492 245.737C168.449 245.759 168.406 245.802 168.362 245.823C166.218 247.349 164.204 249.047 162.341 250.916C162.341 250.916 162.341 250.916 162.319 250.938C161.41 251.84 160.543 252.786 159.698 253.753C159.655 253.818 159.59 253.861 159.547 253.925C158.745 254.914 157.966 255.902 157.229 256.912ZM84.3855 226.826C84.2123 226.676 84.039 226.525 83.8657 226.353C83.2809 225.795 82.7394 225.214 82.1979 224.634C81.9379 224.355 81.678 224.075 81.4181 223.796C80.9632 223.259 80.5084 222.7 80.0752 222.141C79.7936 221.776 79.4903 221.389 79.2304 221.002C78.8622 220.487 78.4939 219.949 78.1474 219.391C77.8658 218.939 77.5842 218.488 77.3026 218.015C76.9994 217.5 76.7178 216.962 76.4362 216.447C76.1546 215.909 75.8947 215.394 75.6565 214.835C75.4182 214.319 75.1799 213.825 74.985 213.288C74.7467 212.686 74.5301 212.084 74.3135 211.461C74.1402 210.967 73.9669 210.472 73.8153 209.978C73.6204 209.29 73.4471 208.603 73.2738 207.915C73.1655 207.442 73.0356 206.991 72.9489 206.518C72.7973 205.723 72.689 204.906 72.5807 204.111C72.5374 203.724 72.4507 203.338 72.4074 202.929C72.2774 201.704 72.2125 200.479 72.2125 199.233C72.2125 197.987 72.2774 196.762 72.4074 195.537C72.4507 195.128 72.5157 194.742 72.5807 194.333C72.689 193.538 72.7973 192.722 72.9489 191.926C73.0356 191.454 73.1655 190.981 73.2955 190.508C73.4688 189.82 73.6204 189.133 73.837 188.467C73.9886 187.951 74.1619 187.457 74.3352 186.962C74.5518 186.361 74.7684 185.737 75.0066 185.157C75.2232 184.641 75.4615 184.126 75.6998 183.61C75.938 183.073 76.198 182.535 76.4795 182.02C76.7611 181.482 77.0427 180.967 77.346 180.429C77.6275 179.957 77.9091 179.505 78.1907 179.054C78.5373 178.517 78.9055 177.958 79.2737 177.442C79.5553 177.055 79.8369 176.69 80.1185 176.325C80.5517 175.766 80.9849 175.207 81.4614 174.67C81.6997 174.391 81.9596 174.111 82.2195 173.832C82.761 173.252 83.3025 172.671 83.8874 172.113C84.0606 171.962 84.2339 171.812 84.4072 171.661C89.9522 166.547 97.0352 163.065 104.876 161.948C104.919 161.948 104.963 161.927 105.006 161.927C106.934 178.194 116.963 191.969 130.977 199.233C116.963 206.497 106.912 220.272 105.006 236.54C104.963 236.54 104.919 236.518 104.876 236.518C96.9918 235.422 89.9306 231.919 84.3855 226.826ZM115.966 151.01C118.284 134.376 131.562 121.203 148.348 118.882C148.348 118.925 148.37 118.968 148.37 118.99C148.522 120.322 148.738 121.654 149.02 122.944C149.02 122.987 149.041 123.03 149.041 123.073C149.886 127.091 151.229 130.938 153.005 134.527V134.548C153.59 135.709 154.218 136.848 154.868 137.965C154.911 138.03 154.933 138.094 154.976 138.159C155.626 139.233 156.319 140.286 157.056 141.318C157.121 141.404 157.164 141.468 157.229 141.554C157.966 142.564 158.745 143.553 159.568 144.52C159.612 144.584 159.677 144.627 159.72 144.692C160.565 145.659 161.431 146.604 162.341 147.507C162.341 147.507 162.341 147.507 162.363 147.528C164.225 149.376 166.24 151.074 168.384 152.6C168.427 152.643 168.471 152.664 168.514 152.707C169.532 153.438 170.593 154.126 171.676 154.77C171.763 154.835 171.871 154.878 171.958 154.942C173.019 155.565 174.124 156.167 175.229 156.704C175.337 156.747 175.445 156.812 175.554 156.855C176.68 157.392 177.828 157.908 179.019 158.359C179.106 158.402 179.193 158.424 179.279 158.467C180.492 158.939 181.727 159.369 182.983 159.735H183.005C185.604 160.508 188.312 161.045 191.062 161.368C191.084 161.368 191.127 161.389 191.149 161.389C188.831 178.022 175.554 191.196 158.767 193.517C158.767 193.495 158.745 193.452 158.745 193.431C158.42 190.68 157.857 188.015 157.099 185.437V185.415C156.731 184.169 156.298 182.944 155.821 181.719C155.778 181.633 155.756 181.547 155.713 181.461C155.258 180.3 154.738 179.161 154.197 178.023C154.153 177.915 154.088 177.808 154.045 177.7C153.482 176.583 152.897 175.508 152.269 174.455C152.204 174.369 152.161 174.262 152.096 174.176C151.446 173.101 150.753 172.048 150.016 171.038C149.995 170.995 149.951 170.952 149.93 170.909C148.392 168.782 146.681 166.783 144.796 164.914C144.796 164.914 144.796 164.914 144.774 164.892C143.865 163.99 142.912 163.13 141.915 162.292C141.85 162.249 141.807 162.184 141.742 162.141C140.789 161.325 139.793 160.573 138.753 159.821C138.666 159.756 138.601 159.713 138.515 159.649C137.475 158.918 136.414 158.23 135.331 157.586C135.266 157.543 135.201 157.521 135.136 157.478C134.009 156.812 132.861 156.189 131.692 155.63C131.692 155.63 131.67 155.63 131.67 155.608C128.053 153.846 124.175 152.514 120.125 151.676C120.082 151.676 120.038 151.654 119.995 151.654C118.695 151.396 117.353 151.182 116.01 151.01C116.031 151.031 116.01 151.031 115.966 151.01ZM159.352 107.858C160.478 100.078 163.987 93.0512 169.142 87.5498C169.294 87.3778 169.445 87.2059 169.597 87.0555C170.16 86.4753 170.745 85.938 171.33 85.4008C171.611 85.1429 171.893 84.885 172.175 84.6486C172.716 84.1973 173.279 83.746 173.843 83.3162C174.211 83.0369 174.601 82.736 174.991 82.4781C175.51 82.1128 176.074 81.7475 176.615 81.4036C177.07 81.1243 177.525 80.8449 178.001 80.5655C178.521 80.2647 179.063 79.9853 179.582 79.7059C180.124 79.4266 180.644 79.1687 181.207 78.9323C181.727 78.6959 182.225 78.4595 182.767 78.2661C183.373 78.0297 183.98 77.8148 184.608 77.5999C185.106 77.428 185.604 77.2561 186.102 77.1056C186.774 76.9122 187.488 76.7403 188.182 76.5684C188.658 76.4609 189.113 76.332 189.59 76.246C190.391 76.0956 191.214 75.9882 192.015 75.8807C192.405 75.8377 192.795 75.7518 193.207 75.7088C194.441 75.5798 195.676 75.5154 196.932 75.5154C198.189 75.5154 199.423 75.5798 200.658 75.7088C201.069 75.7518 201.459 75.8162 201.849 75.8807C202.672 75.9882 203.474 76.0956 204.275 76.246C204.752 76.332 205.228 76.4609 205.705 76.5684C206.398 76.7403 207.091 76.8907 207.784 77.1056C208.304 77.2561 208.802 77.428 209.3 77.5999C209.907 77.8148 210.535 78.0297 211.142 78.2661C211.661 78.481 212.181 78.7174 212.701 78.9538C213.243 79.1902 213.784 79.448 214.304 79.7274C214.845 80.0068 215.365 80.2862 215.907 80.587C216.383 80.8664 216.838 81.1243 217.293 81.4251C217.835 81.769 218.398 82.1343 218.918 82.4996C219.307 82.779 219.676 83.0584 220.044 83.3377C220.607 83.7675 221.17 84.1973 221.712 84.6701C221.993 84.9065 222.275 85.1859 222.556 85.4223C223.141 85.9595 223.726 86.4967 224.289 87.077C224.441 87.2489 224.593 87.4208 224.744 87.5713C229.899 93.0727 233.408 100.1 234.535 107.879C234.535 107.922 234.556 107.965 234.556 108.008C218.159 109.921 204.275 119.871 196.954 133.775C189.633 119.871 175.749 109.899 159.352 108.008C159.33 107.965 159.352 107.901 159.352 107.858ZM236.657 141.554C236.722 141.468 236.766 141.404 236.831 141.318C237.567 140.286 238.26 139.255 238.91 138.159C238.953 138.094 238.997 138.03 239.018 137.965C239.69 136.848 240.318 135.709 240.881 134.548V134.527C242.657 130.938 244 127.091 244.845 123.073C244.845 123.03 244.867 122.987 244.867 122.944C245.127 121.633 245.343 120.322 245.516 118.99C245.516 118.947 245.538 118.904 245.538 118.882C262.303 121.182 275.581 134.355 277.92 151.01C277.877 151.01 277.834 151.031 277.812 151.031C276.469 151.182 275.126 151.396 273.826 151.676C273.783 151.676 273.74 151.697 273.696 151.697C269.646 152.535 265.769 153.868 262.151 155.63H262.13C260.96 156.21 259.812 156.833 258.686 157.478C258.621 157.521 258.556 157.543 258.491 157.586C257.408 158.23 256.347 158.918 255.307 159.649C255.22 159.713 255.155 159.756 255.069 159.821C254.051 160.551 253.054 161.325 252.079 162.141C252.014 162.184 251.971 162.249 251.906 162.292C250.931 163.13 249.978 163.99 249.047 164.892C247.184 166.74 245.473 168.739 243.914 170.866C243.87 170.909 243.849 170.952 243.805 170.995C243.069 172.005 242.376 173.058 241.726 174.133C241.661 174.219 241.618 174.326 241.553 174.412C240.924 175.465 240.318 176.561 239.776 177.657C239.733 177.765 239.668 177.872 239.625 177.98C239.083 179.097 238.563 180.236 238.109 181.418C238.065 181.504 238.044 181.59 238 181.676C237.524 182.879 237.091 184.104 236.722 185.372V185.394C235.943 187.972 235.401 190.659 235.076 193.388C235.076 193.409 235.054 193.452 235.054 193.474C218.289 191.174 205.012 178.001 202.672 161.346C202.694 161.346 202.737 161.325 202.759 161.325C205.532 161.002 208.217 160.444 210.817 159.692C210.838 159.692 210.838 159.692 210.86 159.692C212.116 159.326 213.351 158.896 214.564 158.424C214.65 158.381 214.737 158.359 214.824 158.316C215.993 157.865 217.141 157.349 218.268 156.812C218.376 156.769 218.484 156.704 218.593 156.661C219.719 156.103 220.802 155.523 221.863 154.899C221.95 154.835 222.058 154.792 222.145 154.727C223.228 154.083 224.289 153.395 225.307 152.664C225.351 152.643 225.394 152.6 225.437 152.578C227.582 151.053 229.596 149.355 231.481 147.485C231.481 147.485 231.481 147.485 231.502 147.485C232.412 146.583 233.278 145.637 234.123 144.649C234.166 144.584 234.231 144.541 234.275 144.477C235.141 143.574 235.899 142.586 236.657 141.554ZM277.812 162.012C275.278 178.151 262.433 190.916 246.166 193.431C246.253 192.829 246.383 192.227 246.513 191.626C246.599 191.26 246.643 190.873 246.729 190.53C246.968 189.498 247.271 188.488 247.596 187.5C247.726 187.134 247.877 186.769 248.007 186.425C248.246 185.802 248.462 185.157 248.744 184.534C248.939 184.083 249.155 183.653 249.372 183.202C249.61 182.707 249.848 182.192 250.108 181.697C250.368 181.225 250.628 180.773 250.91 180.3C251.17 179.871 251.43 179.441 251.69 179.011C251.993 178.538 252.318 178.065 252.643 177.593C252.903 177.227 253.162 176.862 253.444 176.518C253.812 176.024 254.202 175.53 254.592 175.078C254.83 174.799 255.09 174.52 255.328 174.24C255.783 173.725 256.26 173.209 256.736 172.736C256.91 172.564 257.083 172.414 257.256 172.242C262.736 166.934 269.863 163.237 277.812 162.012ZM257.213 226.224C257.04 226.053 256.866 225.902 256.693 225.73C256.217 225.236 255.74 224.742 255.285 224.226C255.047 223.947 254.787 223.667 254.549 223.388C254.159 222.915 253.769 222.421 253.401 221.948C253.141 221.583 252.859 221.239 252.599 220.873C252.274 220.401 251.949 219.928 251.646 219.455C251.386 219.025 251.126 218.596 250.866 218.166C250.585 217.714 250.325 217.242 250.065 216.769C249.805 216.275 249.567 215.78 249.329 215.265C249.112 214.813 248.895 214.383 248.7 213.932C248.441 213.309 248.202 212.686 247.986 212.063C247.856 211.697 247.704 211.332 247.574 210.967C247.249 209.978 246.968 208.968 246.708 207.937C246.621 207.571 246.556 207.184 246.491 206.819C246.361 206.217 246.253 205.637 246.166 205.035C262.433 207.55 275.278 220.315 277.812 236.454C269.863 235.229 262.736 231.554 257.213 226.224ZM224.159 139.427C223.986 139.598 223.834 139.77 223.661 139.942C223.163 140.415 222.665 140.888 222.145 141.339C221.863 141.597 221.582 141.833 221.3 142.07C220.824 142.457 220.347 142.843 219.849 143.209C219.481 143.488 219.134 143.746 218.766 144.004C218.289 144.326 217.813 144.649 217.336 144.949C216.903 145.229 216.47 145.465 216.037 145.723C215.582 145.981 215.105 146.26 214.629 146.497C214.131 146.755 213.611 146.991 213.113 147.227C212.679 147.442 212.225 147.657 211.77 147.851C211.142 148.108 210.513 148.345 209.864 148.581C209.495 148.71 209.149 148.861 208.781 148.99C207.784 149.312 206.766 149.591 205.726 149.849C205.358 149.935 204.99 150 204.622 150.064C204.015 150.193 203.409 150.3 202.802 150.408C205.337 134.269 218.203 121.525 234.47 119.011C233.213 126.876 229.509 133.947 224.159 139.427ZM189.286 150.064C188.918 149.978 188.528 149.935 188.16 149.849C187.12 149.613 186.102 149.312 185.106 148.99C184.738 148.861 184.369 148.71 184.001 148.581C183.373 148.345 182.745 148.13 182.117 147.872C181.662 147.679 181.229 147.464 180.774 147.249C180.276 147.012 179.756 146.776 179.258 146.518C178.781 146.26 178.305 146.002 177.85 145.723C177.416 145.465 176.983 145.229 176.572 144.949C176.095 144.649 175.619 144.326 175.142 143.982C174.774 143.725 174.406 143.467 174.059 143.187C173.561 142.822 173.063 142.435 172.608 142.048C172.326 141.812 172.045 141.554 171.763 141.318C171.243 140.866 170.723 140.394 170.247 139.921C170.074 139.749 169.922 139.577 169.749 139.405C164.377 133.925 160.673 126.855 159.438 118.968C175.705 121.482 188.572 134.226 191.106 150.365C190.478 150.3 189.871 150.193 189.286 150.064ZM147.157 207.958C146.919 208.99 146.616 210 146.291 210.988C146.161 211.353 146.009 211.719 145.879 212.084C145.641 212.707 145.424 213.352 145.164 213.954C144.969 214.405 144.753 214.835 144.536 215.286C144.298 215.78 144.06 216.296 143.8 216.79C143.54 217.263 143.28 217.714 142.998 218.187C142.738 218.617 142.478 219.047 142.218 219.477C141.915 219.949 141.59 220.422 141.265 220.895C141.006 221.26 140.746 221.626 140.464 221.969C140.096 222.464 139.706 222.937 139.316 223.409C139.078 223.689 138.818 223.968 138.58 224.247C138.125 224.763 137.67 225.257 137.172 225.752C136.998 225.924 136.825 226.074 136.652 226.246C131.128 231.554 124.002 235.25 116.053 236.475C118.587 220.336 131.432 207.571 147.699 205.057C147.612 205.659 147.482 206.26 147.374 206.841C147.287 207.206 147.244 207.571 147.157 207.958ZM136.652 172.242C136.825 172.414 136.998 172.564 137.172 172.736C137.648 173.23 138.125 173.725 138.58 174.24C138.839 174.52 139.078 174.799 139.316 175.078C139.706 175.551 140.096 176.024 140.464 176.518C140.746 176.884 141.006 177.227 141.265 177.593C141.59 178.065 141.915 178.538 142.218 179.011C142.5 179.441 142.738 179.871 142.998 180.3C143.258 180.752 143.54 181.225 143.778 181.697C144.038 182.192 144.276 182.707 144.514 183.202C144.731 183.631 144.948 184.083 145.143 184.534C145.403 185.157 145.641 185.78 145.879 186.425C146.009 186.79 146.161 187.134 146.291 187.5C146.616 188.488 146.897 189.498 147.157 190.53C147.244 190.895 147.309 191.26 147.374 191.626C147.504 192.227 147.612 192.829 147.72 193.431C131.453 190.916 118.609 178.151 116.075 162.012C124.002 163.237 131.128 166.912 136.652 172.242ZM169.727 259.061C169.9 258.889 170.052 258.717 170.225 258.545C170.723 258.073 171.222 257.6 171.741 257.149C172.023 256.891 172.305 256.654 172.586 256.418C173.063 256.031 173.539 255.644 174.037 255.279C174.406 255 174.752 254.742 175.12 254.484C175.597 254.161 176.074 253.839 176.55 253.538C176.983 253.28 177.416 253.022 177.85 252.765C178.305 252.507 178.781 252.227 179.258 251.969C179.756 251.712 180.254 251.475 180.774 251.239C181.207 251.024 181.662 250.809 182.117 250.616C182.745 250.358 183.373 250.121 184.023 249.885C184.391 249.756 184.738 249.606 185.106 249.477C186.102 249.154 187.12 248.875 188.16 248.617C188.528 248.531 188.896 248.467 189.265 248.402C189.871 248.273 190.478 248.166 191.084 248.058C188.55 264.197 175.684 276.941 159.417 279.455C160.651 271.59 164.377 264.52 169.727 259.061ZM176.203 199.233C185.063 194.634 192.319 187.435 196.954 178.646C201.589 187.435 208.846 194.634 217.705 199.233C208.846 203.832 201.589 211.031 196.954 219.82C192.297 211.031 185.063 203.832 176.203 199.233Z" fill="#302625"></path><path fill-rule="evenodd" clip-rule="evenodd" d="M535.183 44.5269H509.932L430.702 111.308V44.5269H411.365V188.723H430.702V120.613L513.052 188.723H538.303L450.257 115.103L535.183 44.5269ZM591.103 191.534C625.915 191.534 649.051 168.408 649.051 138.666C649.051 107.96 625.915 85.991 591.103 85.991C556.096 85.991 532.377 107.982 532.377 138.666C532.377 168.43 556.096 191.534 591.103 191.534ZM590.714 101.922C616.376 101.922 629.994 116.697 629.994 138.687C629.994 160.85 616.376 175.646 590.714 175.646C565.031 175.646 551.434 160.871 551.434 138.687C551.434 116.697 565.053 101.922 590.714 101.922ZM513.055 284.543H430.687V352.723H411.365V207.289H430.687V266.227H513.055V207.289H532.377V352.723H513.055V284.543ZM650.917 321.239H632.399C628.774 328.263 617.119 337.149 598.601 337.149C575.875 337.149 563.465 325.201 561.35 306.829L650.939 306.636V296.508C650.939 270.17 632.594 247.516 597.846 247.516C562.516 247.516 542.358 269.314 542.358 299.998C542.358 330.126 561.544 353.058 598.796 353.058C632.011 353.08 648.435 334.708 650.917 321.239ZM597.458 263.447C616.558 263.447 632.594 272.354 632.594 292.054H561.544C561.544 272.354 578.357 263.447 597.458 263.447ZM853.581 264.685V320.936C853.581 333.826 858.351 337.423 873.847 337.445H873.848C875.77 337.445 882.006 337.445 885.825 337.252V352.605C880.667 352.969 872.682 353.162 870.782 353.162C844.042 353.162 835.063 343.505 835.063 324.747V264.706H818.445H814.323V250.874H818.445C833.143 250.874 836.013 245.756 836.013 234V223.38H853.581V248.968H885.221V264.685H853.581ZM958.742 248.427C945.555 248.427 928.181 252.795 918.253 266.435V207.289H899.736V352.702H918.253V296.755C918.253 276.284 935.26 264.358 954.922 264.358C973.828 264.358 983.562 275.342 983.562 293.543V352.723H1002.08V288.425C1002.1 265.107 985.482 248.427 958.742 248.427ZM665.997 279.312C666.368 265.524 676.229 247.516 715.608 247.516C743.599 247.516 763.278 257.299 763.3 290.611V351.109H744.581L746.13 336.455C737.251 345.655 719.295 353.057 702.3 353.057C669.662 353.057 659.627 336.78 659.627 322.603C659.627 313.403 664.056 305.763 673.131 299.81C683.189 293.295 699.399 289.464 738.014 289.464H744.188V283.728C744.188 271.65 736.858 263.425 715.237 263.425C692.068 263.425 685.13 272.04 684.541 279.312H665.997ZM704.591 337.927C731.229 337.927 744.559 324.897 744.559 317.624V302.862H737.032C704.984 302.862 677.953 305.936 677.953 322.603C677.953 331.997 686.636 337.927 704.591 337.927ZM714.361 85.991C674.982 85.991 665.121 104 664.75 117.788H683.294C683.883 110.515 690.821 101.9 713.99 101.9C735.611 101.9 742.941 110.125 742.941 122.203V127.939H736.767C698.151 127.939 681.942 131.77 671.884 138.286C662.808 144.238 658.38 151.879 658.38 161.078C658.38 175.256 668.415 191.533 701.053 191.533C718.048 191.533 736.003 184.13 744.883 174.931L743.334 189.585H762.052V129.086C762.031 95.7746 742.352 85.991 714.361 85.991ZM743.312 156.1C743.312 163.372 729.982 176.403 703.344 176.403C685.389 176.403 676.706 170.472 676.706 161.078C676.706 144.411 703.736 141.338 735.785 141.338H743.312V156.1ZM796.662 207.289L796.662 321.138C796.662 334.028 801.453 337.626 816.906 337.626C818.827 337.626 822.237 337.626 826.057 337.433V352.786C820.898 353.15 815.784 353.343 813.863 353.343C787.122 353.343 778.144 343.686 778.144 324.928L778.144 207.289H796.662Z" fill="#302625"></path></svg> 