<?xml version="1.0" encoding="UTF-8"?> <svg xmlns="http://www.w3.org/2000/svg" id="Layer_1" data-name="Layer 1" viewBox="0 0 1920 1080"><defs><style>.cls-1{fill:#fff;}.cls-2{fill:#ee9c77;}.cls-3{fill:#9ec3db;}.cls-4{fill:#b1fcd0;}.cls-5{fill:#d2c3b3;}</style></defs><path d="M742.5,745.89a203.67,203.67,0,0,1-128.24-44.82,206.86,206.86,0,0,1-71.87-112.51l2.91-.71a203.92,203.92,0,0,0,70.83,110.88A200.69,200.69,0,0,0,742.5,742.89,202.84,202.84,0,0,0,941.94,577.4l2.94.55C926.75,675.26,841.63,745.89,742.5,745.89Z"></path><polygon points="551.7 588.7 541.6 577.68 537.1 591.94 551.7 588.7"></polygon><path d="M543.07,502.6l-3-.55A205.83,205.83,0,0,1,742.5,334.11a203.65,203.65,0,0,1,128.24,44.82,206.88,206.88,0,0,1,71.88,112.51l-2.92.71a203.87,203.87,0,0,0-70.83-110.88A200.69,200.69,0,0,0,742.5,337.11,202.82,202.82,0,0,0,543.07,502.6Z"></path><polygon points="933.3 491.3 943.41 502.32 947.9 488.06 933.3 491.3"></polygon><path d="M1177.17,745.89a203.65,203.65,0,0,1-128.24-44.82,206.86,206.86,0,0,1-71.87-112.51l2.91-.71a203.87,203.87,0,0,0,70.83,110.88,200.69,200.69,0,0,0,126.37,44.16A202.82,202.82,0,0,0,1376.6,577.4l3,.55C1361.42,675.26,1276.3,745.89,1177.17,745.89Z"></path><polygon points="986.37 588.7 976.26 577.68 971.77 591.94 986.37 588.7"></polygon><path d="M977.74,502.6l-3-.55c18.13-97.31,103.25-167.94,202.38-167.94a203.67,203.67,0,0,1,128.24,44.82,206.86,206.86,0,0,1,71.87,112.51l-2.91.71a203.92,203.92,0,0,0-70.83-110.88,200.69,200.69,0,0,0-126.37-44.16A202.82,202.82,0,0,0,977.74,502.6Z"></path><polygon points="1367.97 491.3 1378.08 502.32 1382.57 488.06 1367.97 491.3"></polygon><path d="M1611.84,745.89a203.63,203.63,0,0,1-128.24-44.82,206.88,206.88,0,0,1-71.88-112.51l2.92-.71a203.87,203.87,0,0,0,70.83,110.88,200.69,200.69,0,0,0,126.37,44.16A202.83,202.83,0,0,0,1811.27,577.4l3,.55A205.83,205.83,0,0,1,1611.84,745.89Z"></path><polygon points="1421.04 588.7 1410.93 577.68 1406.43 591.94 1421.04 588.7"></polygon><path d="M1412.4,502.6l-3-.55a205.83,205.83,0,0,1,202.39-167.94,203.67,203.67,0,0,1,128.24,44.82A206.92,206.92,0,0,1,1812,491.44l-2.92.71a203.91,203.91,0,0,0-70.82-110.88,200.71,200.71,0,0,0-126.37-44.16A202.83,202.83,0,0,0,1412.4,502.6Z"></path><polygon points="1802.63 491.3 1812.74 502.32 1817.24 488.06 1802.63 491.3"></polygon><path d="M307.84,745.89A203.63,203.63,0,0,1,179.6,701.07a206.88,206.88,0,0,1-71.88-112.51l2.92-.71a203.87,203.87,0,0,0,70.83,110.88,200.69,200.69,0,0,0,126.37,44.16A202.83,202.83,0,0,0,507.27,577.4l3,.55A205.83,205.83,0,0,1,307.84,745.89Z"></path><polygon points="117.04 588.7 106.93 577.68 102.44 591.94 117.04 588.7"></polygon><path d="M108.4,502.6l-3-.55A205.83,205.83,0,0,1,307.84,334.11a203.67,203.67,0,0,1,128.24,44.82A206.92,206.92,0,0,1,508,491.44l-2.92.71a203.91,203.91,0,0,0-70.82-110.88,200.71,200.71,0,0,0-126.37-44.16A202.83,202.83,0,0,0,108.4,502.6Z"></path><polygon points="498.63 491.3 508.74 502.32 513.24 488.06 498.63 491.3"></polygon><circle class="cls-1" cx="308" cy="352" r="59.5"></circle><path d="M308,413a61,61,0,1,1,61-61A61.06,61.06,0,0,1,308,413Zm0-119a58,58,0,1,0,58,58A58.07,58.07,0,0,0,308,294Z"></path><circle class="cls-1" cx="308" cy="738" r="59.5"></circle><path d="M308,799a61,61,0,1,1,61-61A61.06,61.06,0,0,1,308,799Zm0-119a58,58,0,1,0,58,58A58.07,58.07,0,0,0,308,680Z"></path><circle class="cls-1" cx="743" cy="738" r="59.5"></circle><path d="M743,799a61,61,0,1,1,61-61A61.06,61.06,0,0,1,743,799Zm0-119a58,58,0,1,0,58,58A58.07,58.07,0,0,0,743,680Z"></path><circle class="cls-1" cx="1178" cy="738" r="59.5"></circle><path d="M1178,799a61,61,0,1,1,61-61A61.06,61.06,0,0,1,1178,799Zm0-119a58,58,0,1,0,58,58A58.07,58.07,0,0,0,1178,680Z"></path><circle class="cls-1" cx="1613" cy="738" r="59.5"></circle><path d="M1613,799a61,61,0,1,1,61-61A61.06,61.06,0,0,1,1613,799Zm0-119a58,58,0,1,0,58,58A58.07,58.07,0,0,0,1613,680Z"></path><circle class="cls-1" cx="742.5" cy="352" r="59.5"></circle><path d="M742.5,413a61,61,0,1,1,61-61A61.07,61.07,0,0,1,742.5,413Zm0-119a58,58,0,1,0,58,58A58.07,58.07,0,0,0,742.5,294Z"></path><circle class="cls-1" cx="1177.17" cy="352" r="59.5"></circle><path d="M1177.17,413a61,61,0,1,1,61-61A61.06,61.06,0,0,1,1177.17,413Zm0-119a58,58,0,1,0,58,58A58.07,58.07,0,0,0,1177.17,294Z"></path><circle class="cls-1" cx="1611.84" cy="352" r="59.5"></circle><path d="M1611.84,413a61,61,0,1,1,61-61A61.06,61.06,0,0,1,1611.84,413Zm0-119a58,58,0,1,0,58,58A58.06,58.06,0,0,0,1611.84,294Z"></path><path d="M80.91,533.74h-3.8l-.8,2.17h-2l3.77-9.8H79.9l3.77,9.8h-2Zm-.59-1.61L79,528.6l-1.31,3.53Z"></path><path d="M84.69,526h1.76v9.92H84.69Z"></path><path d="M90.08,526v1.83H88.17V526Zm-1.85,2.86H90v7.06H88.23Z"></path><path d="M98.38,528.85v6.61c0,1.87-1.4,3.11-3.5,3.11a3,3,0,0,1-3.22-2.2l1.64-.26c.08.66.75,1,1.58,1a1.55,1.55,0,0,0,1.76-1.51v-.77a2.42,2.42,0,0,1-2,.82,3.15,3.15,0,0,1-3.29-3.47c0-2.09,1.22-3.49,3.25-3.49a2.53,2.53,0,0,1,2,.83v-.72Zm-1.64,3.38a1.81,1.81,0,1,0-1.81,1.95A1.77,1.77,0,0,0,96.74,532.23Z"></path><path d="M100.17,528.85h1.76v1.07a2.64,2.64,0,0,1,2.24-1.18,2.42,2.42,0,0,1,2.58,2.55v4.62H105v-4.2a1.29,1.29,0,0,0-1.35-1.4c-1.08,0-1.71.92-1.71,2.51v3.09h-1.76Z"></path><path d="M48.07,549.18a3.44,3.44,0,0,1,3.58-3.64c1.81,0,3.09.94,3.32,2.44l-1.72.33a1.47,1.47,0,0,0-1.54-1.24c-1.09,0-1.81.82-1.81,2.11s.72,2.12,1.81,2.12a1.46,1.46,0,0,0,1.54-1.21l1.72.35c-.26,1.49-1.54,2.38-3.32,2.38A3.44,3.44,0,0,1,48.07,549.18Z"></path><path d="M56,549.18a3.69,3.69,0,1,1,3.69,3.64A3.54,3.54,0,0,1,56,549.18Zm5.59,0a1.92,1.92,0,1,0-1.9,2.12A1.91,1.91,0,0,0,61.58,549.18Z"></path><path d="M64.76,542.79h1.76v9.92H64.76Z"></path><path d="M68.3,542.79h1.76v9.92H68.3Z"></path><path d="M77.67,548.41v4.3H76v-1a2.46,2.46,0,0,1-2.12,1.13,2.16,2.16,0,0,1-2.35-2.1c0-1.38,1.05-2.13,3.15-2.35l1.32-.13v-.07a1.26,1.26,0,0,0-1.4-1.29,1.33,1.33,0,0,0-1.4,1.24l-1.57-.28a2.84,2.84,0,0,1,3-2.3C76.41,545.54,77.67,546.53,77.67,548.41ZM76,549.66v-.16l-1.35.16c-.94.11-1.41.5-1.41,1s.39.85,1,.85A1.71,1.71,0,0,0,76,549.66Z"></path><path d="M81.22,551.9v.81H79.46v-9.92h1.76v3.65a2.55,2.55,0,0,1,2-.9c2.08,0,3.33,1.48,3.33,3.64s-1.25,3.64-3.36,3.64A2.39,2.39,0,0,1,81.22,551.9Zm3.63-2.72A1.88,1.88,0,1,0,83,551.3,1.88,1.88,0,0,0,84.85,549.18Z"></path><path d="M87.62,549.18a3.68,3.68,0,1,1,3.68,3.64A3.54,3.54,0,0,1,87.62,549.18Zm5.59,0a1.92,1.92,0,1,0-1.91,2.12A1.91,1.91,0,0,0,93.21,549.18Z"></path><path d="M100,547.19c-1,0-1.89.83-1.89,2.93v2.59H96.38v-7.06h1.77v1.29a2.46,2.46,0,0,1,2.13-1.4,2.7,2.7,0,0,1,.77.11l-.12,1.71A2.31,2.31,0,0,0,100,547.19Z"></path><path d="M107.77,548.41v4.3h-1.71v-1a2.46,2.46,0,0,1-2.12,1.13,2.16,2.16,0,0,1-2.35-2.1c0-1.38,1-2.13,3.15-2.35l1.32-.13v-.07a1.26,1.26,0,0,0-1.4-1.29,1.33,1.33,0,0,0-1.4,1.24l-1.57-.28a2.84,2.84,0,0,1,3-2.3C106.51,545.54,107.77,546.53,107.77,548.41Zm-1.71,1.25v-.16l-1.35.16c-.94.11-1.41.5-1.41,1s.39.85,1,.85A1.71,1.71,0,0,0,106.06,549.66Z"></path><path d="M112.48,552.82A2.25,2.25,0,0,1,110,550.4v-3.26H108.8v-1.49H110v-2.07h1.76v2.07h1.78v1.49h-1.78v3.09c0,.67.37,1,.92,1a1.83,1.83,0,0,0,.82-.17l.13,1.54A3.25,3.25,0,0,1,112.48,552.82Z"></path><path d="M116.75,542.79v1.83h-1.9v-1.83Zm-1.85,2.86h1.77v7.06H114.9Z"></path><path d="M118.07,549.18a3.68,3.68,0,1,1,3.68,3.64A3.54,3.54,0,0,1,118.07,549.18Zm5.59,0a1.92,1.92,0,1,0-1.91,2.12A1.91,1.91,0,0,0,123.66,549.18Z"></path><path d="M126.83,545.65h1.77v1.07a2.61,2.61,0,0,1,2.24-1.18,2.41,2.41,0,0,1,2.57,2.55v4.62h-1.76v-4.2a1.29,1.29,0,0,0-1.35-1.4c-1.07,0-1.7.92-1.7,2.51v3.09h-1.77Z"></path><path d="M287.22,364.5l1.12,1.22-1.18,1-1.2-1.3a5,5,0,0,1-2.4.57,5,5,0,1,1,5-5A5.07,5.07,0,0,1,287.22,364.5Zm-2.48-.35-1.7-1.84,1.21-1.06,1.72,1.89a3.63,3.63,0,0,0,.63-2.13,3.06,3.06,0,1,0-3,3.36A3.22,3.22,0,0,0,284.74,364.15Z"></path><path d="M296.54,365.91h-1.76v-1.06a2.65,2.65,0,0,1-2.24,1.17,2.42,2.42,0,0,1-2.58-2.55v-4.62h1.76v4.2a1.3,1.3,0,0,0,1.35,1.41c1.09,0,1.71-.93,1.71-2.51v-3.1h1.76Z"></path><path d="M305,362.84h-5.24a1.79,1.79,0,0,0,1.85,1.7,1.49,1.49,0,0,0,1.59-1.08l1.66.45a3.15,3.15,0,0,1-3.28,2.11,3.5,3.5,0,0,1-3.59-3.64,3.42,3.42,0,0,1,3.49-3.64,3.36,3.36,0,0,1,3.54,3.4C305,362.4,305,362.7,305,362.84Zm-1.87-1.28a1.54,1.54,0,0,0-1.65-1.48,1.65,1.65,0,0,0-1.68,1.48Z"></path><path d="M305.69,363.94l1.45-.59a1.67,1.67,0,0,0,1.64,1.3c.65,0,1.09-.35,1.09-.8,0-1.33-3.85-.46-3.85-3.13,0-1.11,1-2,2.5-2a2.84,2.84,0,0,1,2.85,1.72l-1.43.61a1.43,1.43,0,0,0-1.39-1c-.56,0-.94.24-.94.65,0,1.24,3.88.25,3.88,3.14,0,1.21-1.09,2.19-2.71,2.19A3.14,3.14,0,0,1,305.69,363.94Z"></path><path d="M315.79,366a2.25,2.25,0,0,1-2.49-2.42v-3.26h-1.19v-1.49h1.19v-2.07h1.76v2.07h1.78v1.49h-1.78v3.09c0,.67.37,1,.91,1a1.85,1.85,0,0,0,.83-.17l.12,1.54A3.19,3.19,0,0,1,315.79,366Z"></path><path d="M320.06,356v1.83h-1.91V356Zm-1.85,2.86H320v7.06h-1.77Z"></path><path d="M321.37,362.38a3.69,3.69,0,1,1,3.69,3.64A3.54,3.54,0,0,1,321.37,362.38Zm5.59,0a1.92,1.92,0,1,0-1.9,2.12A1.91,1.91,0,0,0,327,362.38Z"></path><path d="M330.14,358.85h1.76v1.07a2.64,2.64,0,0,1,2.24-1.18,2.42,2.42,0,0,1,2.58,2.55v4.62H335v-4.2a1.29,1.29,0,0,0-1.35-1.4c-1.08,0-1.71.92-1.71,2.51v3.09h-1.76Z"></path><path d="M704.27,356.11h4a3,3,0,1,1,0,6h-2.05v3.82h-1.9Zm3.78,4.34c1,0,1.53-.51,1.53-1.35s-.58-1.35-1.53-1.35h-1.88v2.7Z"></path><path d="M716.34,360.39c-1,0-1.89.83-1.89,2.93v2.59h-1.77v-7.06h1.77v1.29a2.46,2.46,0,0,1,2.13-1.4,2.7,2.7,0,0,1,.77.11l-.11,1.71A2.4,2.4,0,0,0,716.34,360.39Z"></path><path d="M717.81,362.38a3.69,3.69,0,1,1,3.68,3.64A3.54,3.54,0,0,1,717.81,362.38Zm5.59,0a1.92,1.92,0,1,0-1.91,2.12A1.91,1.91,0,0,0,723.4,362.38Z"></path><path d="M725.54,358.85h1.77l1.61,5,1.62-5h1.79l-2.58,7.06h-1.64Z"></path><path d="M732.69,362.38a3.69,3.69,0,1,1,3.68,3.64A3.54,3.54,0,0,1,732.69,362.38Zm5.59,0a1.92,1.92,0,1,0-1.91,2.12A1.91,1.91,0,0,0,738.28,362.38Z"></path><path d="M741.07,362.38a3.46,3.46,0,0,1,3.59-3.64c1.81,0,3.08.94,3.32,2.44l-1.72.33a1.48,1.48,0,0,0-1.54-1.24c-1.1,0-1.81.82-1.81,2.11s.71,2.12,1.81,2.12a1.47,1.47,0,0,0,1.54-1.21l1.72.35c-.27,1.49-1.54,2.38-3.32,2.38A3.45,3.45,0,0,1,741.07,362.38Z"></path><path d="M755.18,361.61v4.3h-1.71v-1a2.46,2.46,0,0,1-2.12,1.13,2.16,2.16,0,0,1-2.35-2.1c0-1.38,1-2.13,3.15-2.35l1.32-.13v-.07a1.26,1.26,0,0,0-1.4-1.29,1.33,1.33,0,0,0-1.4,1.24L749.1,361a2.84,2.84,0,0,1,3-2.3C753.92,358.74,755.18,359.73,755.18,361.61Zm-1.71,1.25v-.16l-1.35.16c-.94.11-1.41.5-1.41,1s.39.85,1,.85A1.7,1.7,0,0,0,753.47,362.86Z"></path><path d="M759.89,366a2.25,2.25,0,0,1-2.49-2.42v-3.26h-1.19v-1.49h1.19v-2.07h1.76v2.07h1.78v1.49h-1.78v3.09c0,.67.37,1,.92,1a1.83,1.83,0,0,0,.82-.17l.13,1.54A3.25,3.25,0,0,1,759.89,366Z"></path><path d="M764.16,356v1.83h-1.9V356Zm-1.85,2.86h1.77v7.06h-1.77Z"></path><path d="M765.48,362.38a3.68,3.68,0,1,1,3.68,3.64A3.54,3.54,0,0,1,765.48,362.38Zm5.59,0a1.92,1.92,0,1,0-1.91,2.12A1.92,1.92,0,0,0,771.07,362.38Z"></path><path d="M774.24,358.85H776v1.07a2.61,2.61,0,0,1,2.24-1.18,2.41,2.41,0,0,1,2.57,2.55v4.62h-1.76v-4.2a1.29,1.29,0,0,0-1.35-1.4c-1.07,0-1.7.92-1.7,2.51v3.09h-1.77Z"></path><path d="M1142.13,356.11h1.95l2.54,7.53,2.56-7.53h1.93l-3.57,9.8h-1.83Z"></path><path d="M1157.08,361.61v4.3h-1.71v-1a2.47,2.47,0,0,1-2.12,1.13,2.16,2.16,0,0,1-2.35-2.1c0-1.38,1-2.13,3.15-2.35l1.32-.13v-.07a1.26,1.26,0,0,0-1.4-1.29,1.33,1.33,0,0,0-1.4,1.24L1151,361a2.84,2.84,0,0,1,3-2.3C1155.82,358.74,1157.08,359.73,1157.08,361.61Zm-1.71,1.25v-.16l-1.35.16c-.94.11-1.41.5-1.41,1s.39.85,1,.85A1.7,1.7,0,0,0,1155.37,362.86Z"></path><path d="M1158.87,356h1.76v9.92h-1.76Z"></path><path d="M1169,365.91h-1.77v-1.06A2.62,2.62,0,0,1,1165,366a2.42,2.42,0,0,1-2.57-2.55v-4.62h1.76v4.2a1.3,1.3,0,0,0,1.35,1.41c1.09,0,1.7-.93,1.7-2.51v-3.1H1169Z"></path><path d="M1177.4,362.84h-5.23a1.78,1.78,0,0,0,1.84,1.7,1.5,1.5,0,0,0,1.6-1.08l1.65.45A3.13,3.13,0,0,1,1174,366a3.5,3.5,0,0,1-3.59-3.64,3.42,3.42,0,0,1,3.49-3.64,3.36,3.36,0,0,1,3.54,3.4A6.41,6.41,0,0,1,1177.4,362.84Zm-1.86-1.28a1.54,1.54,0,0,0-1.65-1.48,1.65,1.65,0,0,0-1.68,1.48Z"></path><path d="M1182.26,358.85H1184v.81a2.59,2.59,0,0,1,2.1-.92c2,0,3.28,1.49,3.28,3.64A3.33,3.33,0,0,1,1186,366a2.56,2.56,0,0,1-2-.81v3.25h-1.76Zm5.39,3.53a1.88,1.88,0,1,0-1.86,2.12A1.88,1.88,0,0,0,1187.65,362.38Z"></path><path d="M1194.45,360.39c-1,0-1.89.83-1.89,2.93v2.59h-1.76v-7.06h1.76v1.29a2.47,2.47,0,0,1,2.13-1.4,2.7,2.7,0,0,1,.77.11l-.11,1.71A2.37,2.37,0,0,0,1194.45,360.39Z"></path><path d="M1195.92,362.38a3.69,3.69,0,1,1,3.69,3.64A3.54,3.54,0,0,1,1195.92,362.38Zm5.59,0a1.92,1.92,0,1,0-1.9,2.12A1.91,1.91,0,0,0,1201.51,362.38Z"></path><path d="M1204.69,358.85h1.76v.81a2.56,2.56,0,0,1,2.1-.92c2,0,3.28,1.49,3.28,3.64a3.33,3.33,0,0,1-3.4,3.64,2.54,2.54,0,0,1-2-.81v3.25h-1.76Zm5.39,3.53a1.88,1.88,0,1,0-1.86,2.12A1.88,1.88,0,0,0,1210.08,362.38Z"></path><path d="M1584.13,356.11h3.95a3,3,0,1,1,0,6h-2v3.82h-1.91Zm3.78,4.34c.95,0,1.53-.51,1.53-1.35s-.58-1.35-1.53-1.35H1586v2.7Z"></path><path d="M1596.2,360.39c-1,0-1.89.83-1.89,2.93v2.59h-1.77v-7.06h1.77v1.29a2.46,2.46,0,0,1,2.13-1.4,2.7,2.7,0,0,1,.77.11l-.11,1.71A2.4,2.4,0,0,0,1596.2,360.39Z"></path><path d="M1597.67,362.38a3.69,3.69,0,1,1,3.68,3.64A3.54,3.54,0,0,1,1597.67,362.38Zm5.59,0a1.92,1.92,0,1,0-1.91,2.12A1.91,1.91,0,0,0,1603.26,362.38Z"></path><path d="M1606.05,362.38c0-2.15,1.25-3.64,3.34-3.64a2.53,2.53,0,0,1,2,.9V356h1.77v9.92h-1.77v-.81a2.35,2.35,0,0,1-2,.92C1607.3,366,1606.05,364.54,1606.05,362.38Zm5.49,0a1.88,1.88,0,1,0-1.87,2.12A1.88,1.88,0,0,0,1611.54,362.38Z"></path><path d="M1621.55,365.91h-1.76v-1.06a2.65,2.65,0,0,1-2.24,1.17,2.42,2.42,0,0,1-2.58-2.55v-4.62h1.77v4.2a1.29,1.29,0,0,0,1.34,1.41c1.09,0,1.71-.93,1.71-2.51v-3.1h1.76Z"></path><path d="M1623,362.38a3.46,3.46,0,0,1,3.59-3.64c1.81,0,3.08.94,3.32,2.44l-1.72.33a1.48,1.48,0,0,0-1.54-1.24c-1.1,0-1.81.82-1.81,2.11s.71,2.12,1.81,2.12a1.47,1.47,0,0,0,1.54-1.21l1.72.35c-.27,1.49-1.54,2.38-3.32,2.38A3.45,3.45,0,0,1,1623,362.38Z"></path><path d="M1634.19,366a2.26,2.26,0,0,1-2.49-2.42v-3.26h-1.19v-1.49h1.19v-2.07h1.77v2.07h1.78v1.49h-1.78v3.09c0,.67.36,1,.91,1a1.83,1.83,0,0,0,.82-.17l.13,1.54A3.25,3.25,0,0,1,1634.19,366Z"></path><path d="M1636.26,363.94l1.45-.59a1.67,1.67,0,0,0,1.64,1.3c.65,0,1.09-.35,1.09-.8,0-1.33-3.85-.46-3.85-3.13,0-1.11,1-2,2.5-2a2.84,2.84,0,0,1,2.85,1.72l-1.43.61a1.43,1.43,0,0,0-1.39-1c-.56,0-.94.24-.94.65,0,1.24,3.88.25,3.88,3.14,0,1.21-1.09,2.19-2.71,2.19A3.15,3.15,0,0,1,1636.26,363.94Z"></path><path d="M501.15,526.11h1.9v9.8h-1.9Z"></path><path d="M504.52,532.38c0-2.15,1.25-3.64,3.33-3.64a2.55,2.55,0,0,1,2,.9V526h1.76v9.92H509.9v-.81a2.37,2.37,0,0,1-2,.92C505.77,536,504.52,534.54,504.52,532.38Zm5.49,0a1.88,1.88,0,1,0-1.88,2.12A1.89,1.89,0,0,0,510,532.38Z"></path><path d="M520.06,532.84h-5.24a1.8,1.8,0,0,0,1.85,1.7,1.5,1.5,0,0,0,1.6-1.08l1.65.45a3.13,3.13,0,0,1-3.27,2.11,3.5,3.5,0,0,1-3.59-3.64,3.42,3.42,0,0,1,3.49-3.64,3.36,3.36,0,0,1,3.54,3.4A6.41,6.41,0,0,1,520.06,532.84Zm-1.86-1.28a1.54,1.54,0,0,0-1.65-1.48,1.65,1.65,0,0,0-1.68,1.48Z"></path><path d="M521.49,528.85h1.76v1.07a2.64,2.64,0,0,1,2.24-1.18,2.42,2.42,0,0,1,2.58,2.55v4.62h-1.76v-4.2a1.29,1.29,0,0,0-1.35-1.4c-1.08,0-1.71.92-1.71,2.51v3.09h-1.76Z"></path><path d="M532.66,536a2.25,2.25,0,0,1-2.49-2.42v-3.26H529v-1.49h1.19v-2.07h1.76v2.07h1.78v1.49h-1.78v3.09c0,.67.37,1,.91,1a1.85,1.85,0,0,0,.83-.17l.13,1.54A3.25,3.25,0,0,1,532.66,536Z"></path><path d="M536.93,526v1.83H535V526Zm-1.85,2.86h1.77v7.06h-1.77Z"></path><path d="M541.68,536a2.26,2.26,0,0,1-2.5-2.42v-3.26H538v-1.49h1.19v-2.07H541v2.07h1.78v1.49H541v3.09c0,.67.36,1,.91,1a1.87,1.87,0,0,0,.83-.17l.12,1.54A3.23,3.23,0,0,1,541.68,536Z"></path><path d="M550.53,528.85l-3.73,9.61H545l1.09-2.83-2.74-6.78h1.91l1.7,4.54,1.75-4.54Z"></path><path d="M490.77,549.18a3.44,3.44,0,0,1,3.58-3.64c1.81,0,3.08.94,3.32,2.44l-1.72.33a1.48,1.48,0,0,0-1.54-1.24c-1.1,0-1.81.82-1.81,2.11s.71,2.12,1.81,2.12a1.47,1.47,0,0,0,1.54-1.21l1.72.35c-.27,1.49-1.54,2.38-3.32,2.38A3.44,3.44,0,0,1,490.77,549.18Z"></path><path d="M499.07,542.79h1.76v4a2.5,2.5,0,0,1,2.24-1.2,2.44,2.44,0,0,1,2.64,2.55v4.62h-1.77v-4.19a1.31,1.31,0,0,0-1.4-1.41c-1.09,0-1.71.94-1.71,2.53v3.07h-1.76Z"></path><path d="M513.31,548.41v4.3H511.6v-1a2.46,2.46,0,0,1-2.12,1.13,2.16,2.16,0,0,1-2.35-2.1c0-1.38,1.05-2.13,3.15-2.35l1.32-.13v-.07a1.26,1.26,0,0,0-1.4-1.29,1.33,1.33,0,0,0-1.4,1.24l-1.57-.28a2.84,2.84,0,0,1,3-2.3C512.05,545.54,513.31,546.53,513.31,548.41Zm-1.71,1.25v-.16l-1.35.16c-.93.11-1.41.5-1.41,1s.39.85,1,.85A1.71,1.71,0,0,0,511.6,549.66Z"></path><path d="M515.1,542.79h1.76v9.92H515.1Z"></path><path d="M518.64,542.79h1.76v9.92h-1.76Z"></path><path d="M528.81,549.64h-5.24a1.79,1.79,0,0,0,1.85,1.7,1.49,1.49,0,0,0,1.59-1.08l1.66.45a3.15,3.15,0,0,1-3.28,2.11,3.5,3.5,0,0,1-3.59-3.64,3.42,3.42,0,0,1,3.49-3.64,3.36,3.36,0,0,1,3.54,3.4C528.83,549.2,528.82,549.5,528.81,549.64Zm-1.87-1.28a1.54,1.54,0,0,0-1.65-1.48,1.65,1.65,0,0,0-1.68,1.48Z"></path><path d="M530.23,545.65H532v1.07a2.61,2.61,0,0,1,2.24-1.18,2.41,2.41,0,0,1,2.57,2.55v4.62h-1.76v-4.2a1.29,1.29,0,0,0-1.35-1.4c-1.07,0-1.7.92-1.7,2.51v3.09h-1.77Z"></path><path d="M545.2,545.65v6.61c0,1.87-1.4,3.11-3.5,3.11a3,3,0,0,1-3.22-2.2l1.64-.26c.08.66.75,1.05,1.58,1.05a1.55,1.55,0,0,0,1.76-1.51v-.77a2.42,2.42,0,0,1-2,.82,3.15,3.15,0,0,1-3.29-3.47c0-2.09,1.22-3.49,3.25-3.49a2.53,2.53,0,0,1,2,.83v-.72ZM543.56,549a1.81,1.81,0,1,0-1.81,2A1.77,1.77,0,0,0,543.56,549Z"></path><path d="M553.61,549.64h-5.23a1.79,1.79,0,0,0,1.84,1.7,1.5,1.5,0,0,0,1.6-1.08l1.65.45a3.13,3.13,0,0,1-3.27,2.11,3.5,3.5,0,0,1-3.59-3.64,3.42,3.42,0,0,1,3.49-3.64,3.36,3.36,0,0,1,3.54,3.4A6.41,6.41,0,0,1,553.61,549.64Zm-1.86-1.28a1.54,1.54,0,0,0-1.65-1.48,1.65,1.65,0,0,0-1.68,1.48Z"></path><path d="M554.35,550.74l1.44-.59a1.68,1.68,0,0,0,1.64,1.3c.66,0,1.1-.35,1.1-.8,0-1.33-3.86-.46-3.86-3.13,0-1.11,1-2,2.51-2a2.83,2.83,0,0,1,2.84,1.72l-1.42.61a1.44,1.44,0,0,0-1.39-1c-.56,0-.94.24-.94.65,0,1.24,3.88.25,3.88,3.13,0,1.22-1.09,2.2-2.72,2.2A3.13,3.13,0,0,1,554.35,550.74Z"></path><path d="M921.08,536.11h3.81c1.81,0,3.08.89,3.08,2.52a2.21,2.21,0,0,1-1.19,1.93,2.48,2.48,0,0,1,1.68,2.44c0,1.83-1.37,2.91-3.43,2.91h-3.95Zm3.68,3.82c1,0,1.45-.42,1.45-1.15s-.48-1.15-1.47-1.15H923v2.3Zm.07,4.33c1.24,0,1.81-.46,1.81-1.35s-.57-1.37-1.81-1.37H923v2.72Z"></path><path d="M935.68,541.61v4.3H934v-1a2.47,2.47,0,0,1-2.12,1.13,2.15,2.15,0,0,1-2.35-2.1c0-1.38,1-2.13,3.15-2.35l1.32-.13v-.07a1.26,1.26,0,0,0-1.41-1.29,1.33,1.33,0,0,0-1.4,1.24L929.6,541a2.85,2.85,0,0,1,3-2.3C934.42,538.74,935.68,539.73,935.68,541.61Zm-1.7,1.25v-.16l-1.35.16c-.94.11-1.41.5-1.41,1s.39.85,1,.85A1.71,1.71,0,0,0,934,542.86Z"></path><path d="M937.09,542.38a3.46,3.46,0,0,1,3.59-3.64c1.81,0,3.08.94,3.32,2.44l-1.72.33a1.48,1.48,0,0,0-1.54-1.24c-1.1,0-1.81.82-1.81,2.11s.71,2.12,1.81,2.12a1.47,1.47,0,0,0,1.54-1.21l1.72.35c-.27,1.49-1.54,2.38-3.32,2.38A3.45,3.45,0,0,1,937.09,542.38Z"></path><path d="M948,542.8l-.82.81v2.3H945.4V536h1.78v5.37l2.66-2.51h2.24l-2.87,2.79,3.09,4.27h-2.13Z"></path><path d="M952.54,542.38a3.45,3.45,0,0,1,3.58-3.64c1.81,0,3.08.94,3.32,2.44l-1.72.33a1.47,1.47,0,0,0-1.54-1.24c-1.09,0-1.81.82-1.81,2.11s.72,2.12,1.81,2.12a1.46,1.46,0,0,0,1.54-1.21l1.72.35c-.26,1.49-1.54,2.38-3.32,2.38A3.44,3.44,0,0,1,952.54,542.38Z"></path><path d="M966.64,541.61v4.3h-1.71v-1a2.46,2.46,0,0,1-2.12,1.13,2.16,2.16,0,0,1-2.35-2.1c0-1.38,1-2.13,3.15-2.35l1.32-.13v-.07a1.26,1.26,0,0,0-1.4-1.29,1.33,1.33,0,0,0-1.4,1.24l-1.57-.28a2.84,2.84,0,0,1,3-2.3C965.38,538.74,966.64,539.73,966.64,541.61Zm-1.71,1.25v-.16l-1.35.16c-.93.11-1.41.5-1.41,1s.39.85,1,.85A1.7,1.7,0,0,0,964.93,542.86Z"></path><path d="M967.81,543.94l1.44-.59a1.68,1.68,0,0,0,1.64,1.3c.66,0,1.09-.35,1.09-.8,0-1.33-3.85-.46-3.85-3.13,0-1.11,1-2,2.51-2a2.83,2.83,0,0,1,2.84,1.72l-1.43.61a1.42,1.42,0,0,0-1.38-1c-.56,0-.94.24-.94.65,0,1.24,3.88.25,3.88,3.14,0,1.21-1.09,2.19-2.72,2.19A3.13,3.13,0,0,1,967.81,543.94Z"></path><path d="M977.91,546a2.26,2.26,0,0,1-2.5-2.42v-3.26h-1.19v-1.49h1.19v-2.07h1.77v2.07H979v1.49h-1.78v3.09c0,.67.36,1,.91,1a1.87,1.87,0,0,0,.83-.17l.12,1.54A3.23,3.23,0,0,1,977.91,546Z"></path><path d="M982.18,536v1.83h-1.91V536Zm-1.85,2.86h1.76v7.06h-1.76Z"></path><path d="M983.87,538.85h1.76v1.07a2.64,2.64,0,0,1,2.25-1.18,2.41,2.41,0,0,1,2.57,2.55v4.62h-1.76v-4.2a1.29,1.29,0,0,0-1.35-1.4c-1.08,0-1.71.92-1.71,2.51v3.09h-1.76Z"></path><path d="M998.84,538.85v6.61c0,1.87-1.4,3.11-3.5,3.11a3,3,0,0,1-3.22-2.2l1.63-.26c.09.66.76,1,1.59,1a1.55,1.55,0,0,0,1.76-1.51v-.77a2.42,2.42,0,0,1-2,.82,3.15,3.15,0,0,1-3.29-3.47c0-2.09,1.22-3.49,3.25-3.49a2.53,2.53,0,0,1,2,.83v-.72Zm-1.64,3.38a1.81,1.81,0,1,0-1.81,1.95A1.77,1.77,0,0,0,997.2,542.23Z"></path><path d="M1364.06,541.94l1.69-.52a2.19,2.19,0,0,0,2.16,2c1,0,1.69-.49,1.69-1.23,0-2.12-5.19-.93-5.19-4.49,0-1.56,1.47-2.69,3.4-2.69a3.46,3.46,0,0,1,3.64,2.48l-1.71.7a1.86,1.86,0,0,0-1.93-1.55c-.94,0-1.51.41-1.51,1.06,0,1.78,5.24.47,5.24,4.44,0,1.74-1.49,2.9-3.7,2.9A3.69,3.69,0,0,1,1364.06,541.94Z"></path><path d="M1379.52,541.84h-5.24a1.79,1.79,0,0,0,1.85,1.7,1.49,1.49,0,0,0,1.59-1.08l1.66.45a3.15,3.15,0,0,1-3.28,2.11,3.5,3.5,0,0,1-3.59-3.64,3.42,3.42,0,0,1,3.49-3.64,3.36,3.36,0,0,1,3.54,3.4C1379.54,541.4,1379.53,541.7,1379.52,541.84Zm-1.87-1.28a1.54,1.54,0,0,0-1.65-1.48,1.65,1.65,0,0,0-1.68,1.48Z"></path><path d="M1380.94,535h1.77v9.92h-1.77Z"></path><path d="M1391.11,541.84h-5.24a1.79,1.79,0,0,0,1.85,1.7,1.49,1.49,0,0,0,1.59-1.08l1.66.45a3.14,3.14,0,0,1-3.28,2.11,3.5,3.5,0,0,1-3.59-3.64,3.42,3.42,0,0,1,3.49-3.64,3.37,3.37,0,0,1,3.55,3.4C1391.14,541.4,1391.12,541.7,1391.11,541.84Zm-1.87-1.28a1.54,1.54,0,0,0-1.65-1.48,1.65,1.65,0,0,0-1.68,1.48Z"></path><path d="M1392.15,541.38a3.45,3.45,0,0,1,3.59-3.64c1.81,0,3.08.94,3.32,2.44l-1.72.33a1.48,1.48,0,0,0-1.55-1.24c-1.09,0-1.8.82-1.8,2.11s.71,2.12,1.8,2.12a1.47,1.47,0,0,0,1.55-1.21l1.72.35c-.27,1.49-1.54,2.38-3.32,2.38A3.45,3.45,0,0,1,1392.15,541.38Z"></path><path d="M1403.38,545a2.26,2.26,0,0,1-2.49-2.42v-3.26h-1.19v-1.49h1.19v-2.07h1.77v2.07h1.77v1.49h-1.77v3.09c0,.67.36,1,.91,1a1.83,1.83,0,0,0,.82-.17l.13,1.54A3.25,3.25,0,0,1,1403.38,545Z"></path><path d="M1407.65,535v1.83h-1.9V535Zm-1.85,2.86h1.77v7.06h-1.77Z"></path><path d="M1409,541.38a3.69,3.69,0,1,1,3.68,3.64A3.54,3.54,0,0,1,1409,541.38Zm5.59,0a1.92,1.92,0,1,0-1.91,2.12A1.91,1.91,0,0,0,1414.56,541.38Z"></path><path d="M1417.73,537.85h1.77v1.07a2.62,2.62,0,0,1,2.24-1.18,2.41,2.41,0,0,1,2.57,2.55v4.62h-1.76v-4.2a1.29,1.29,0,0,0-1.34-1.4c-1.08,0-1.71.92-1.71,2.51v3.09h-1.77Z"></path><path d="M1807.11,531a4.71,4.71,0,0,1,4.87-5c2.36,0,4,1.29,4.36,3.27l-1.89.39a2.41,2.41,0,0,0-2.47-2c-1.65,0-2.94,1.18-2.94,3.38s1.28,3.36,2.94,3.36a2.29,2.29,0,0,0,2.41-1.85l1.92.42A4.1,4.1,0,0,1,1812,536,4.67,4.67,0,0,1,1807.11,531Z"></path><path d="M1821.42,530.39c-1,0-1.89.83-1.89,2.93v2.59h-1.77v-7.06h1.77v1.29a2.46,2.46,0,0,1,2.13-1.4,2.7,2.7,0,0,1,.77.11l-.11,1.71A2.4,2.4,0,0,0,1821.42,530.39Z"></path><path d="M1829.89,532.84h-5.24a1.8,1.8,0,0,0,1.85,1.7,1.5,1.5,0,0,0,1.6-1.08l1.65.45a3.14,3.14,0,0,1-3.28,2.11,3.49,3.49,0,0,1-3.58-3.64,3.42,3.42,0,0,1,3.49-3.64,3.36,3.36,0,0,1,3.54,3.4A6.41,6.41,0,0,1,1829.89,532.84Zm-1.86-1.28a1.54,1.54,0,0,0-1.65-1.48,1.65,1.65,0,0,0-1.68,1.48Z"></path><path d="M1837.12,531.61v4.3h-1.71v-1a2.47,2.47,0,0,1-2.12,1.13,2.15,2.15,0,0,1-2.35-2.1c0-1.38,1-2.13,3.15-2.35l1.32-.13v-.07a1.26,1.26,0,0,0-1.4-1.29,1.33,1.33,0,0,0-1.4,1.24L1831,531a2.84,2.84,0,0,1,3-2.3C1835.85,528.74,1837.12,529.73,1837.12,531.61Zm-1.71,1.25v-.16l-1.35.16c-.94.11-1.41.5-1.41,1s.39.85,1,.85A1.7,1.7,0,0,0,1835.41,532.86Z"></path><path d="M1841.83,536a2.25,2.25,0,0,1-2.49-2.42v-3.26h-1.19v-1.49h1.19v-2.07h1.76v2.07h1.78v1.49h-1.78v3.09c0,.67.37,1,.91,1a1.85,1.85,0,0,0,.83-.17l.13,1.54A3.25,3.25,0,0,1,1841.83,536Z"></path><path d="M1850.74,532.84h-5.24a1.79,1.79,0,0,0,1.85,1.7,1.51,1.51,0,0,0,1.6-1.08l1.65.45a3.14,3.14,0,0,1-3.28,2.11,3.5,3.5,0,0,1-3.59-3.64,3.42,3.42,0,0,1,3.49-3.64,3.37,3.37,0,0,1,3.55,3.4C1850.77,532.4,1850.75,532.7,1850.74,532.84Zm-1.86-1.28a1.55,1.55,0,0,0-1.66-1.48,1.65,1.65,0,0,0-1.68,1.48Z"></path><path d="M1799.14,549.18a3.45,3.45,0,0,1,3.59-3.64c1.81,0,3.08.94,3.32,2.44l-1.72.33a1.48,1.48,0,0,0-1.54-1.24c-1.1,0-1.81.82-1.81,2.11s.71,2.12,1.81,2.12a1.47,1.47,0,0,0,1.54-1.21l1.72.35c-.27,1.49-1.54,2.38-3.32,2.38A3.45,3.45,0,0,1,1799.14,549.18Z"></path><path d="M1807.07,549.18a3.69,3.69,0,1,1,3.68,3.64A3.54,3.54,0,0,1,1807.07,549.18Zm5.59,0a1.92,1.92,0,1,0-1.91,2.12A1.91,1.91,0,0,0,1812.66,549.18Z"></path><path d="M1815.83,545.65h1.77v1.08a2.21,2.21,0,0,1,2-1.19,2.14,2.14,0,0,1,2.2,1.33,2.63,2.63,0,0,1,2.34-1.33,2.33,2.33,0,0,1,2.52,2.38v4.79h-1.77v-4.3a1.22,1.22,0,0,0-1.29-1.37c-1,0-1.5.83-1.5,2.07v3.6h-1.76v-4.3a1.21,1.21,0,0,0-1.26-1.37c-1,0-1.51.84-1.51,2.09v3.58h-1.77Z"></path><path d="M1828.46,545.65h1.76v.81a2.6,2.6,0,0,1,2.11-.92c2,0,3.27,1.48,3.27,3.64a3.33,3.33,0,0,1-3.4,3.64,2.56,2.56,0,0,1-2-.81v3.25h-1.76Zm5.39,3.53a1.88,1.88,0,1,0-1.86,2.12A1.88,1.88,0,0,0,1833.85,549.18Z"></path><path d="M1842.8,548.41v4.3h-1.71v-1a2.46,2.46,0,0,1-2.12,1.13,2.16,2.16,0,0,1-2.35-2.1c0-1.38,1.05-2.13,3.15-2.35l1.32-.13v-.07a1.26,1.26,0,0,0-1.4-1.29,1.33,1.33,0,0,0-1.4,1.24l-1.57-.28a2.84,2.84,0,0,1,3-2.3C1841.54,545.54,1842.8,546.53,1842.8,548.41Zm-1.71,1.25v-.16l-1.35.16c-.93.11-1.41.5-1.41,1s.39.85,1,.85A1.71,1.71,0,0,0,1841.09,549.66Z"></path><path d="M1844.59,545.65h1.76v1.07a2.64,2.64,0,0,1,2.24-1.18,2.42,2.42,0,0,1,2.58,2.55v4.62h-1.76v-4.2a1.29,1.29,0,0,0-1.35-1.4c-1.08,0-1.71.92-1.71,2.51v3.09h-1.76Z"></path><path d="M1859.08,545.65l-3.72,9.61h-1.8l1.09-2.83-2.74-6.78h1.92l1.69,4.54,1.75-4.54Z"></path><path d="M485.54,760.11h2.92a4.9,4.9,0,1,1,0,9.8h-2.92Zm2.87,8.65a3.76,3.76,0,0,0,0-7.52H486.8v7.52Z"></path><path d="M497.76,760.11h6.18v1.13H499v2.89h4v1.15h-4v3.48h5.06v1.15h-6.34Z"></path><path d="M507.66,765a4.64,4.64,0,0,1,4.77-5,4,4,0,0,1,4.13,3.1l-1.26.28a2.74,2.74,0,0,0-2.89-2.24c-2,0-3.43,1.37-3.43,3.88s1.44,3.87,3.43,3.87a2.72,2.72,0,0,0,2.87-2.15l1.28.27a4,4,0,0,1-4.13,3A4.63,4.63,0,0,1,507.66,765Z"></path><path d="M520.91,760.11h1.27v9.8h-1.27Z"></path><path d="M526.39,767l1.21-.39a2.54,2.54,0,0,0,2.55,2.27c1.34,0,2.21-.63,2.21-1.61,0-2.62-5.57-1.25-5.57-4.72,0-1.53,1.37-2.57,3.3-2.57a3.21,3.21,0,0,1,3.43,2.43l-1.16.45a2.12,2.12,0,0,0-2.27-1.74c-1.26,0-2,.55-2,1.43,0,2.24,5.61.78,5.61,4.7,0,1.67-1.42,2.76-3.56,2.76A3.66,3.66,0,0,1,526.39,767Z"></path><path d="M538,760.11h1.28v9.8H538Z"></path><path d="M543.67,765a4.83,4.83,0,1,1,4.83,5A4.76,4.76,0,0,1,543.67,765Zm8.35,0a3.54,3.54,0,1,0-3.53,3.87A3.59,3.59,0,0,0,552,765Z"></path><path d="M557.71,760.11h1.42l4.94,7.8v-7.8h1.25v9.8H563.9L559,762.14v7.77h-1.25Z"></path><path d="M489.53,776.91h1.54l3.31,8,3.31-8h1.54v9.8H498v-7.39l-3.06,7.39h-1.06l-3.07-7.39v7.39h-1.25Z"></path><path d="M503.6,781.81a4.83,4.83,0,1,1,4.84,5A4.77,4.77,0,0,1,503.6,781.81Zm8.35,0a3.54,3.54,0,1,0-3.53,3.87A3.59,3.59,0,0,0,512,781.81Z"></path><path d="M517.65,776.91h1.54l3.3,8,3.31-8h1.54v9.8h-1.26v-7.39L523,786.71H522l-3.07-7.39v7.39h-1.24Z"></path><path d="M532.16,776.91h6.18V778h-4.9v2.89h4v1.15h-4v3.48h5v1.15h-6.33Z"></path><path d="M542.9,776.91h1.42l4.94,7.8v-7.8h1.25v9.8h-1.42l-4.94-7.77v7.77H542.9Z"></path><path d="M557.7,778h-3.12v-1.13h7.5V778H559v8.67H557.7Z"></path><path d="M284,343.58a3.45,3.45,0,1,1,3.45,3.58A3.4,3.4,0,0,1,284,343.58Zm6,0a2.53,2.53,0,1,0-2.52,2.76A2.56,2.56,0,0,0,289.94,343.58Z"></path><path d="M294,344.66v-4.58h.89v4.63a1.78,1.78,0,0,0,3.54,0v-4.63h.88v4.58a2.66,2.66,0,0,1-5.31,0Z"></path><path d="M304.45,340.89h-2.23v-.81h5.36v.81h-2.22v6.19h-.91Z"></path><path d="M310.46,340.08h2.66a2,2,0,1,1,0,4.06h-1.75v2.94h-.91Zm2.63,3.24a1.22,1.22,0,1,0,0-2.43h-1.72v2.43Z"></path><path d="M318.34,344.66v-4.58h.89v4.63a1.78,1.78,0,0,0,3.54,0v-4.63h.88v4.58a2.66,2.66,0,0,1-5.31,0Z"></path><path d="M328.78,340.89h-2.23v-.81h5.36v.81h-2.22v6.19h-.91Z"></path><path d="M718.65,343.58a3.44,3.44,0,1,1,3.45,3.58A3.4,3.4,0,0,1,718.65,343.58Zm6,0a2.52,2.52,0,1,0-2.52,2.76A2.56,2.56,0,0,0,724.6,343.58Z"></path><path d="M728.68,344.66v-4.58h.89v4.63a1.77,1.77,0,0,0,3.53,0v-4.63H734v4.58a2.65,2.65,0,0,1-5.3,0Z"></path><path d="M739.12,340.89h-2.23v-.81h5.35v.81H740v6.19h-.91Z"></path><path d="M745.13,340.08h2.66a2,2,0,1,1,0,4.06H746v2.94h-.91Zm2.62,3.24a1.22,1.22,0,1,0,0-2.43H746v2.43Z"></path><path d="M753,344.66v-4.58h.89v4.63a1.77,1.77,0,0,0,3.53,0v-4.63h.88v4.58a2.65,2.65,0,0,1-5.3,0Z"></path><path d="M763.45,340.89h-2.23v-.81h5.35v.81h-2.22v6.19h-.9Z"></path><path d="M1153.31,343.58a3.45,3.45,0,1,1,3.45,3.58A3.4,3.4,0,0,1,1153.31,343.58Zm6,0a2.53,2.53,0,1,0-2.52,2.76A2.56,2.56,0,0,0,1159.27,343.58Z"></path><path d="M1163.34,344.66v-4.58h.89v4.63a1.78,1.78,0,0,0,3.54,0v-4.63h.88v4.58a2.66,2.66,0,0,1-5.31,0Z"></path><path d="M1173.78,340.89h-2.23v-.81h5.36v.81h-2.22v6.19h-.91Z"></path><path d="M1179.79,340.08h2.66a2,2,0,1,1,0,4.06h-1.75v2.94h-.91Zm2.63,3.24a1.22,1.22,0,1,0,0-2.43h-1.72v2.43Z"></path><path d="M1187.67,344.66v-4.58h.89v4.63a1.78,1.78,0,0,0,3.54,0v-4.63h.88v4.58a2.66,2.66,0,0,1-5.31,0Z"></path><path d="M1198.11,340.89h-2.23v-.81h5.36v.81H1199v6.19h-.91Z"></path><path d="M1586.57,343.58a3.45,3.45,0,1,1,3.45,3.58A3.4,3.4,0,0,1,1586.57,343.58Zm6,0a2.53,2.53,0,1,0-2.52,2.76A2.56,2.56,0,0,0,1592.53,343.58Z"></path><path d="M1596.6,344.66v-4.58h.89v4.63a1.78,1.78,0,0,0,3.54,0v-4.63h.88v4.58a2.66,2.66,0,0,1-5.31,0Z"></path><path d="M1607,340.89h-2.23v-.81h5.36v.81H1608v6.19H1607Z"></path><path d="M1613.05,340.08h2.66a2,2,0,1,1,0,4.06H1614v2.94h-.91Zm2.63,3.24a1.22,1.22,0,1,0,0-2.43H1614v2.43Z"></path><path d="M1620.93,344.66v-4.58h.89v4.63a1.78,1.78,0,0,0,3.54,0v-4.63h.88v4.58a2.66,2.66,0,0,1-5.31,0Z"></path><path d="M1631.37,340.89h-2.23v-.81h5.36v.81h-2.22v6.19h-.91Z"></path><path d="M257.7,738.35v-6.24h1.79v6.26a2.08,2.08,0,0,0,4.16,0v-6.26h1.78v6.24c0,2.41-1.57,3.67-3.87,3.67S257.7,740.76,257.7,738.35Z"></path><path d="M267.27,734.85H269v1.07a2.61,2.61,0,0,1,2.24-1.18,2.41,2.41,0,0,1,2.57,2.55v4.62h-1.76v-4.2a1.29,1.29,0,0,0-1.34-1.4c-1.08,0-1.71.92-1.71,2.51v3.09h-1.77Z"></path><path d="M275.25,738.38c0-2.15,1.25-3.64,3.34-3.64a2.54,2.54,0,0,1,2,.9V732h1.77v9.92h-1.77v-.81a2.36,2.36,0,0,1-2,.92C276.5,742,275.25,740.54,275.25,738.38Zm5.49,0a1.88,1.88,0,1,0-1.87,2.12A1.88,1.88,0,0,0,280.74,738.38Z"></path><path d="M290.79,738.84h-5.23a1.79,1.79,0,0,0,1.85,1.7,1.49,1.49,0,0,0,1.59-1.08l1.65.45a3.13,3.13,0,0,1-3.27,2.11,3.5,3.5,0,0,1-3.59-3.64,3.42,3.42,0,0,1,3.49-3.64,3.36,3.36,0,0,1,3.54,3.4A6.41,6.41,0,0,1,290.79,738.84Zm-1.86-1.28a1.54,1.54,0,0,0-1.65-1.48,1.65,1.65,0,0,0-1.68,1.48Z"></path><path d="M295.88,736.39c-1,0-1.9.83-1.9,2.93v2.59h-1.76v-7.06H294v1.29a2.47,2.47,0,0,1,2.13-1.4,2.65,2.65,0,0,1,.77.11l-.11,1.71A2.35,2.35,0,0,0,295.88,736.39Z"></path><path d="M297.18,739.94l1.44-.59a1.68,1.68,0,0,0,1.64,1.3c.66,0,1.09-.35,1.09-.8,0-1.33-3.85-.46-3.85-3.13,0-1.11,1-2,2.51-2a2.84,2.84,0,0,1,2.84,1.72l-1.43.61a1.43,1.43,0,0,0-1.39-1c-.56,0-.94.24-.94.65,0,1.24,3.88.25,3.88,3.14,0,1.21-1.09,2.19-2.71,2.19A3.13,3.13,0,0,1,297.18,739.94Z"></path><path d="M307.27,742a2.25,2.25,0,0,1-2.49-2.42v-3.26h-1.19v-1.49h1.19v-2.07h1.76v2.07h1.78v1.49h-1.78v3.09c0,.67.37,1,.91,1a1.85,1.85,0,0,0,.83-.17l.13,1.54A3.25,3.25,0,0,1,307.27,742Z"></path><path d="M315.42,737.61v4.3h-1.71v-1A2.44,2.44,0,0,1,311.6,742a2.16,2.16,0,0,1-2.36-2.1c0-1.38,1.05-2.13,3.16-2.35l1.31-.13v-.07a1.26,1.26,0,0,0-1.4-1.29,1.33,1.33,0,0,0-1.4,1.24l-1.57-.28a2.85,2.85,0,0,1,3-2.3C314.16,734.74,315.42,735.73,315.42,737.61Zm-1.71,1.25v-.16l-1.34.16c-.94.11-1.42.5-1.42,1s.4.85,1,.85A1.7,1.7,0,0,0,313.71,738.86Z"></path><path d="M317.21,734.85H319v1.07a2.61,2.61,0,0,1,2.24-1.18,2.41,2.41,0,0,1,2.57,2.55v4.62H322v-4.2a1.29,1.29,0,0,0-1.35-1.4c-1.07,0-1.7.92-1.7,2.51v3.09h-1.77Z"></path><path d="M325.19,738.38c0-2.15,1.25-3.64,3.33-3.64a2.55,2.55,0,0,1,2.05.9V732h1.76v9.92h-1.76v-.81a2.37,2.37,0,0,1-2,.92C326.44,742,325.19,740.54,325.19,738.38Zm5.49,0a1.88,1.88,0,1,0-1.88,2.12A1.89,1.89,0,0,0,330.68,738.38Z"></path><path d="M340.59,742a2.25,2.25,0,0,1-2.49-2.42v-3.26h-1.19v-1.49h1.19v-2.07h1.76v2.07h1.78v1.49h-1.78v3.09c0,.67.37,1,.91,1a1.85,1.85,0,0,0,.83-.17l.13,1.54A3.25,3.25,0,0,1,340.59,742Z"></path><path d="M343.36,732h1.77v4a2.5,2.5,0,0,1,2.24-1.2,2.44,2.44,0,0,1,2.63,2.55v4.62h-1.76v-4.19a1.31,1.31,0,0,0-1.41-1.41c-1.09,0-1.7.94-1.7,2.53v3.07h-1.77Z"></path><path d="M358.4,738.84h-5.24a1.8,1.8,0,0,0,1.85,1.7,1.5,1.5,0,0,0,1.6-1.08l1.65.45A3.14,3.14,0,0,1,355,742a3.49,3.49,0,0,1-3.58-3.64,3.42,3.42,0,0,1,3.49-3.64,3.36,3.36,0,0,1,3.54,3.4A6.41,6.41,0,0,1,358.4,738.84Zm-1.86-1.28a1.55,1.55,0,0,0-1.65-1.48,1.66,1.66,0,0,0-1.69,1.48Z"></path><path d="M259.48,753.14h-1.13v-1.49h1.13v-.54a2.35,2.35,0,0,1,2.49-2.55,3.79,3.79,0,0,1,1.07.15l-.13,1.46a1.78,1.78,0,0,0-.7-.14,1,1,0,0,0-1,1.08v.54h1.68v1.49h-1.68v5.57h-1.77Z"></path><path d="M270.67,758.71h-1.76v-1.06a2.66,2.66,0,0,1-2.25,1.17,2.42,2.42,0,0,1-2.57-2.55v-4.62h1.76v4.2a1.29,1.29,0,0,0,1.35,1.4c1.09,0,1.71-.92,1.71-2.5v-3.1h1.76Z"></path><path d="M275.51,758.82A2.25,2.25,0,0,1,273,756.4v-3.26h-1.19v-1.49H273v-2.07h1.76v2.07h1.78v1.49h-1.78v3.09c0,.67.37,1,.91,1a1.85,1.85,0,0,0,.83-.17l.13,1.54A3.25,3.25,0,0,1,275.51,758.82Z"></path><path d="M284.45,758.71h-1.77v-1.06a2.65,2.65,0,0,1-2.24,1.17,2.42,2.42,0,0,1-2.58-2.55v-4.62h1.77v4.2a1.29,1.29,0,0,0,1.34,1.4c1.09,0,1.71-.92,1.71-2.5v-3.1h1.77Z"></path><path d="M289.89,753.19c-1,0-1.89.83-1.89,2.93v2.59h-1.77v-7.06H288v1.29a2.46,2.46,0,0,1,2.13-1.4,2.7,2.7,0,0,1,.77.11l-.11,1.71A2.4,2.4,0,0,0,289.89,753.19Z"></path><path d="M298.36,755.64h-5.24a1.8,1.8,0,0,0,1.85,1.7,1.5,1.5,0,0,0,1.6-1.08l1.65.45a3.14,3.14,0,0,1-3.28,2.11,3.49,3.49,0,0,1-3.58-3.64,3.42,3.42,0,0,1,3.49-3.64,3.36,3.36,0,0,1,3.54,3.4A6.41,6.41,0,0,1,298.36,755.64Zm-1.86-1.28a1.54,1.54,0,0,0-1.65-1.48,1.65,1.65,0,0,0-1.68,1.48Z"></path><path d="M306.27,758.82a2.25,2.25,0,0,1-2.49-2.42v-3.26h-1.19v-1.49h1.19v-2.07h1.76v2.07h1.78v1.49h-1.78v3.09c0,.67.37,1,.91,1a1.85,1.85,0,0,0,.83-.17l.13,1.54A3.28,3.28,0,0,1,306.27,758.82Z"></path><path d="M315.18,755.64h-5.24a1.79,1.79,0,0,0,1.85,1.7,1.49,1.49,0,0,0,1.59-1.08l1.66.45a3.15,3.15,0,0,1-3.28,2.11,3.5,3.5,0,0,1-3.59-3.64,3.42,3.42,0,0,1,3.49-3.64,3.36,3.36,0,0,1,3.54,3.4C315.2,755.2,315.19,755.5,315.18,755.64Zm-1.87-1.28a1.54,1.54,0,0,0-1.65-1.48,1.65,1.65,0,0,0-1.68,1.48Z"></path><path d="M320.26,753.19c-1,0-1.89.83-1.89,2.93v2.59H316.6v-7.06h1.77v1.29a2.46,2.46,0,0,1,2.12-1.4,2.65,2.65,0,0,1,.77.11l-.11,1.71A2.35,2.35,0,0,0,320.26,753.19Z"></path><path d="M326,753.19c-1,0-1.89.83-1.89,2.93v2.59h-1.77v-7.06h1.77v1.29a2.46,2.46,0,0,1,2.13-1.4,2.7,2.7,0,0,1,.77.11l-.11,1.71A2.4,2.4,0,0,0,326,753.19Z"></path><path d="M330,748.79v1.83h-1.91v-1.83Zm-1.85,2.86h1.76v7.06h-1.76Z"></path><path d="M334.7,758.82a2.25,2.25,0,0,1-2.49-2.42v-3.26H331v-1.49h1.19v-2.07H334v2.07h1.77v1.49H334v3.09c0,.67.36,1,.91,1a1.83,1.83,0,0,0,.82-.17l.13,1.54A3.25,3.25,0,0,1,334.7,758.82Z"></path><path d="M336.61,755.18a3.68,3.68,0,1,1,3.68,3.64A3.54,3.54,0,0,1,336.61,755.18Zm5.59,0a1.92,1.92,0,1,0-1.91,2.12A1.92,1.92,0,0,0,342.2,755.18Z"></path><path d="M349,753.19c-1,0-1.89.83-1.89,2.93v2.59h-1.77v-7.06h1.77v1.29a2.46,2.46,0,0,1,2.12-1.4,2.65,2.65,0,0,1,.77.11l-.11,1.71A2.35,2.35,0,0,0,349,753.19Z"></path><path d="M357.55,751.65l-3.72,9.61H352l1.1-2.83-2.75-6.78h1.92l1.7,4.54,1.75-4.54Z"></path><path d="M721.85,732.11h6.64v1.64h-4.73V736h3.82v1.65h-3.82v4.24h-1.91Z"></path><path d="M735.88,741.91h-1.76v-1.06a2.65,2.65,0,0,1-2.24,1.17,2.42,2.42,0,0,1-2.58-2.55v-4.62h1.77v4.2a1.29,1.29,0,0,0,1.34,1.41c1.09,0,1.71-.93,1.71-2.51v-3.1h1.76Z"></path><path d="M740.73,742a2.26,2.26,0,0,1-2.5-2.42v-3.26H737v-1.49h1.19v-2.07H740v2.07h1.78v1.49H740v3.09c0,.67.36,1,.91,1a1.87,1.87,0,0,0,.83-.17l.12,1.54A3.23,3.23,0,0,1,740.73,742Z"></path><path d="M749.66,741.91H747.9v-1.06a2.66,2.66,0,0,1-2.25,1.17,2.42,2.42,0,0,1-2.57-2.55v-4.62h1.76v4.2a1.3,1.3,0,0,0,1.35,1.41c1.09,0,1.71-.93,1.71-2.51v-3.1h1.76Z"></path><path d="M755.1,736.39c-1,0-1.89.83-1.89,2.93v2.59h-1.76v-7.06h1.76v1.29a2.47,2.47,0,0,1,2.13-1.4,2.7,2.7,0,0,1,.77.11l-.11,1.71A2.37,2.37,0,0,0,755.1,736.39Z"></path><path d="M763.58,738.84h-5.24a1.79,1.79,0,0,0,1.85,1.7,1.49,1.49,0,0,0,1.59-1.08l1.66.45a3.15,3.15,0,0,1-3.28,2.11,3.5,3.5,0,0,1-3.59-3.64,3.42,3.42,0,0,1,3.49-3.64,3.36,3.36,0,0,1,3.54,3.4C763.6,738.4,763.59,738.7,763.58,738.84Zm-1.87-1.28a1.54,1.54,0,0,0-1.65-1.48,1.65,1.65,0,0,0-1.68,1.48Z"></path><path d="M703.9,755.18a3.69,3.69,0,1,1,3.68,3.64A3.54,3.54,0,0,1,703.9,755.18Zm5.59,0a1.92,1.92,0,1,0-1.91,2.12A1.91,1.91,0,0,0,709.49,755.18Z"></path><path d="M712.66,751.65h1.77v.81a2.56,2.56,0,0,1,2.1-.92c2,0,3.28,1.48,3.28,3.64a3.33,3.33,0,0,1-3.41,3.64,2.52,2.52,0,0,1-2-.81v3.25h-1.77Zm5.4,3.53a1.89,1.89,0,1,0-1.87,2.12A1.89,1.89,0,0,0,718.06,755.18Z"></path><path d="M721.2,751.65H723v.81a2.56,2.56,0,0,1,2.1-.92c2,0,3.28,1.48,3.28,3.64a3.33,3.33,0,0,1-3.41,3.64,2.52,2.52,0,0,1-2-.81v3.25H721.2Zm5.4,3.53a1.89,1.89,0,1,0-1.87,2.12A1.89,1.89,0,0,0,726.6,755.18Z"></path><path d="M729.36,755.18a3.69,3.69,0,1,1,3.69,3.64A3.54,3.54,0,0,1,729.36,755.18Zm5.59,0a1.92,1.92,0,1,0-1.9,2.12A1.91,1.91,0,0,0,735,755.18Z"></path><path d="M741.7,753.23c-1,0-1.81.79-1.81,2.89v2.59h-1.76v-7.06h1.76v1.29a2.22,2.22,0,0,1,2-1.4,2.14,2.14,0,0,1,.42,0l-.12,1.71A1.84,1.84,0,0,0,741.7,753.23Z"></path><path d="M747,758.82a2.25,2.25,0,0,1-2.49-2.42v-3.26h-1.19v-1.49h1.19v-2.07h1.76v2.07H748v1.49h-1.78v3.09c0,.67.36,1,.91,1a1.85,1.85,0,0,0,.83-.17l.12,1.54A3.19,3.19,0,0,1,747,758.82Z"></path><path d="M755.88,758.71h-1.76v-1.06a2.65,2.65,0,0,1-2.24,1.17,2.42,2.42,0,0,1-2.58-2.55v-4.62h1.76v4.2a1.29,1.29,0,0,0,1.35,1.4c1.09,0,1.71-.92,1.71-2.5v-3.1h1.76Z"></path><path d="M757.67,751.65h1.77v1.07a2.61,2.61,0,0,1,2.24-1.18,2.41,2.41,0,0,1,2.57,2.55v4.62h-1.76v-4.2a1.29,1.29,0,0,0-1.34-1.4c-1.08,0-1.71.92-1.71,2.51v3.09h-1.77Z"></path><path d="M767.88,748.79v1.83H766v-1.83ZM766,751.65h1.76v7.06H766Z"></path><path d="M772.62,758.82a2.26,2.26,0,0,1-2.49-2.42v-3.26h-1.19v-1.49h1.19v-2.07h1.77v2.07h1.77v1.49H771.9v3.09c0,.67.36,1,.91,1a1.83,1.83,0,0,0,.82-.17l.13,1.54A3.25,3.25,0,0,1,772.62,758.82Z"></path><path d="M781.47,751.65l-3.72,9.61H776l1.09-2.83-2.75-6.78h1.92l1.7,4.54,1.75-4.54Z"></path><path d="M1156.52,732.11h6.64v1.64h-4.74V736h3.83v1.65h-3.83v4.24h-1.9Z"></path><path d="M1170.55,741.91h-1.76v-1.06a2.66,2.66,0,0,1-2.25,1.17,2.42,2.42,0,0,1-2.57-2.55v-4.62h1.76v4.2a1.3,1.3,0,0,0,1.35,1.41c1.09,0,1.71-.93,1.71-2.51v-3.1h1.76Z"></path><path d="M1175.39,742a2.25,2.25,0,0,1-2.49-2.42v-3.26h-1.19v-1.49h1.19v-2.07h1.77v2.07h1.77v1.49h-1.77v3.09c0,.67.36,1,.91,1a1.83,1.83,0,0,0,.82-.17l.13,1.54A3.25,3.25,0,0,1,1175.39,742Z"></path><path d="M1184.33,741.91h-1.77v-1.06a2.64,2.64,0,0,1-2.24,1.17,2.42,2.42,0,0,1-2.58-2.55v-4.62h1.77v4.2a1.3,1.3,0,0,0,1.34,1.41c1.1,0,1.71-.93,1.71-2.51v-3.1h1.77Z"></path><path d="M1189.77,736.39c-1,0-1.89.83-1.89,2.93v2.59h-1.76v-7.06h1.76v1.29a2.46,2.46,0,0,1,2.13-1.4,2.7,2.7,0,0,1,.77.11l-.11,1.71A2.37,2.37,0,0,0,1189.77,736.39Z"></path><path d="M1198.24,738.84H1193a1.8,1.8,0,0,0,1.85,1.7,1.5,1.5,0,0,0,1.6-1.08l1.65.45a3.13,3.13,0,0,1-3.27,2.11,3.5,3.5,0,0,1-3.59-3.64,3.42,3.42,0,0,1,3.49-3.64,3.36,3.36,0,0,1,3.54,3.4A6.41,6.41,0,0,1,1198.24,738.84Zm-1.86-1.28a1.54,1.54,0,0,0-1.65-1.48,1.65,1.65,0,0,0-1.68,1.48Z"></path><path d="M1138.56,755.18a3.69,3.69,0,1,1,3.69,3.64A3.55,3.55,0,0,1,1138.56,755.18Zm5.59,0a1.92,1.92,0,1,0-1.9,2.12A1.91,1.91,0,0,0,1144.15,755.18Z"></path><path d="M1147.33,751.65h1.76v.81a2.59,2.59,0,0,1,2.1-.92c2,0,3.28,1.48,3.28,3.64a3.33,3.33,0,0,1-3.4,3.64,2.56,2.56,0,0,1-2-.81v3.25h-1.76Zm5.39,3.53a1.88,1.88,0,1,0-1.86,2.12A1.88,1.88,0,0,0,1152.72,755.18Z"></path><path d="M1155.87,751.65h1.76v.81a2.59,2.59,0,0,1,2.1-.92c2,0,3.28,1.48,3.28,3.64a3.33,3.33,0,0,1-3.4,3.64,2.56,2.56,0,0,1-2-.81v3.25h-1.76Zm5.39,3.53a1.88,1.88,0,1,0-1.86,2.12A1.88,1.88,0,0,0,1161.26,755.18Z"></path><path d="M1164,755.18a3.69,3.69,0,1,1,3.68,3.64A3.54,3.54,0,0,1,1164,755.18Zm5.59,0a1.92,1.92,0,1,0-1.91,2.12A1.91,1.91,0,0,0,1169.62,755.18Z"></path><path d="M1176.37,753.23c-1,0-1.81.79-1.81,2.89v2.59h-1.77v-7.06h1.77v1.29a2.21,2.21,0,0,1,2-1.4,2.14,2.14,0,0,1,.42,0l-.13,1.71A1.71,1.71,0,0,0,1176.37,753.23Z"></path><path d="M1181.62,758.82a2.26,2.26,0,0,1-2.5-2.42v-3.26h-1.19v-1.49h1.19v-2.07h1.77v2.07h1.78v1.49h-1.78v3.09c0,.67.36,1,.91,1a1.83,1.83,0,0,0,.82-.17l.13,1.54A3.23,3.23,0,0,1,1181.62,758.82Z"></path><path d="M1190.55,758.71h-1.77v-1.06a2.62,2.62,0,0,1-2.24,1.17,2.42,2.42,0,0,1-2.57-2.55v-4.62h1.76v4.2a1.29,1.29,0,0,0,1.35,1.4c1.09,0,1.7-.92,1.7-2.5v-3.1h1.77Z"></path><path d="M1192.34,751.65h1.76v1.07a2.64,2.64,0,0,1,2.24-1.18,2.42,2.42,0,0,1,2.58,2.55v4.62h-1.76v-4.2a1.29,1.29,0,0,0-1.35-1.4c-1.08,0-1.71.92-1.71,2.51v3.09h-1.76Z"></path><path d="M1202.54,748.79v1.83h-1.9v-1.83Zm-1.84,2.86h1.76v7.06h-1.76Z"></path><path d="M1207.29,758.82a2.25,2.25,0,0,1-2.49-2.42v-3.26h-1.19v-1.49h1.19v-2.07h1.76v2.07h1.78v1.49h-1.78v3.09c0,.67.37,1,.91,1a1.85,1.85,0,0,0,.83-.17l.12,1.54A3.15,3.15,0,0,1,1207.29,758.82Z"></path><path d="M1216.14,751.65l-3.72,9.61h-1.8l1.09-2.83-2.74-6.78h1.92l1.69,4.54,1.75-4.54Z"></path><path d="M1588.61,724.11h3.21c2.7,0,5,1.61,5,4.9s-2.33,4.9-5,4.9h-3.21Zm3,8.15a3.26,3.26,0,1,0,0-6.51h-1.16v6.51Z"></path><path d="M1604.08,729.61v4.3h-1.71v-1a2.44,2.44,0,0,1-2.11,1.13,2.15,2.15,0,0,1-2.35-2.1c0-1.38,1-2.13,3.15-2.35l1.31-.13v-.07a1.26,1.26,0,0,0-1.4-1.29,1.33,1.33,0,0,0-1.4,1.24L1598,729a2.85,2.85,0,0,1,3-2.3C1602.82,726.74,1604.08,727.73,1604.08,729.61Zm-1.71,1.25v-.16l-1.34.16c-.94.11-1.42.5-1.42,1s.4.85,1,.85A1.7,1.7,0,0,0,1602.37,730.86Z"></path><path d="M1608.8,734a2.25,2.25,0,0,1-2.49-2.42v-3.26h-1.19v-1.49h1.19v-2.07h1.76v2.07h1.78v1.49h-1.78v3.09c0,.67.36,1,.91,1a1.85,1.85,0,0,0,.83-.17l.12,1.54A3.19,3.19,0,0,1,1608.8,734Z"></path><path d="M1617,729.61v4.3h-1.71v-1a2.46,2.46,0,0,1-2.12,1.13,2.16,2.16,0,0,1-2.35-2.1c0-1.38,1-2.13,3.15-2.35l1.32-.13v-.07a1.26,1.26,0,0,0-1.4-1.29,1.33,1.33,0,0,0-1.4,1.24l-1.57-.28a2.84,2.84,0,0,1,3-2.3C1615.69,726.74,1617,727.73,1617,729.61Zm-1.71,1.25v-.16l-1.35.16c-.93.11-1.41.5-1.41,1s.39.85,1,.85A1.7,1.7,0,0,0,1615.24,730.86Z"></path><path d="M1621.79,730.38a3.69,3.69,0,1,1,3.68,3.64A3.54,3.54,0,0,1,1621.79,730.38Zm5.59,0a1.92,1.92,0,1,0-1.91,2.12A1.91,1.91,0,0,0,1627.38,730.38Z"></path><path d="M1630.55,726.85h1.77v1.07a2.62,2.62,0,0,1,2.24-1.18,2.42,2.42,0,0,1,2.58,2.55v4.62h-1.77v-4.2a1.29,1.29,0,0,0-1.34-1.4c-1.08,0-1.71.92-1.71,2.51v3.09h-1.77Z"></path><path d="M1578.78,747.64h-5.24a1.79,1.79,0,0,0,1.85,1.7,1.51,1.51,0,0,0,1.6-1.08l1.65.45a3.14,3.14,0,0,1-3.28,2.11,3.5,3.5,0,0,1-3.59-3.64,3.42,3.42,0,0,1,3.49-3.64,3.37,3.37,0,0,1,3.55,3.4C1578.81,747.2,1578.79,747.5,1578.78,747.64Zm-1.86-1.28a1.55,1.55,0,0,0-1.66-1.48,1.65,1.65,0,0,0-1.68,1.48Z"></path><path d="M1580.2,743.65H1582v1.07a2.62,2.62,0,0,1,2.24-1.18,2.42,2.42,0,0,1,2.58,2.55v4.62H1585v-4.2a1.29,1.29,0,0,0-1.34-1.4c-1.08,0-1.71.92-1.71,2.51v3.09h-1.77Z"></path><path d="M1595.17,743.65v6.61c0,1.87-1.4,3.11-3.5,3.11a3,3,0,0,1-3.22-2.2l1.64-.26c.08.66.75,1.05,1.58,1.05,1.07,0,1.77-.6,1.77-1.51v-.77a2.43,2.43,0,0,1-2,.82,3.15,3.15,0,0,1-3.29-3.47c0-2.09,1.22-3.49,3.25-3.49a2.53,2.53,0,0,1,2,.83v-.72Zm-1.64,3.38a1.81,1.81,0,1,0-1.8,2A1.77,1.77,0,0,0,1593.53,747Z"></path><path d="M1602.79,746.41v4.3h-1.71v-1a2.46,2.46,0,0,1-2.12,1.13,2.16,2.16,0,0,1-2.35-2.1c0-1.38,1.05-2.13,3.15-2.35l1.32-.13v-.07a1.26,1.26,0,0,0-1.4-1.29,1.33,1.33,0,0,0-1.4,1.24l-1.57-.28a2.84,2.84,0,0,1,3-2.3C1601.53,743.54,1602.79,744.53,1602.79,746.41Zm-1.71,1.25v-.16l-1.35.16c-.93.11-1.41.5-1.41,1s.39.85,1,.85A1.71,1.71,0,0,0,1601.08,747.66Z"></path><path d="M1611.19,743.65v6.61c0,1.87-1.4,3.11-3.5,3.11a3,3,0,0,1-3.23-2.2l1.64-.26c.09.66.76,1.05,1.59,1.05a1.55,1.55,0,0,0,1.76-1.51v-.77a2.42,2.42,0,0,1-2,.82,3.15,3.15,0,0,1-3.29-3.47c0-2.09,1.22-3.49,3.25-3.49a2.55,2.55,0,0,1,2,.83v-.72Zm-1.64,3.38a1.81,1.81,0,1,0-1.81,2A1.78,1.78,0,0,0,1609.55,747Z"></path><path d="M1619.6,747.64h-5.24a1.8,1.8,0,0,0,1.85,1.7,1.5,1.5,0,0,0,1.6-1.08l1.65.45a3.14,3.14,0,0,1-3.28,2.11,3.49,3.49,0,0,1-3.58-3.64,3.42,3.42,0,0,1,3.49-3.64,3.36,3.36,0,0,1,3.54,3.4A6.41,6.41,0,0,1,1619.6,747.64Zm-1.86-1.28a1.54,1.54,0,0,0-1.65-1.48,1.65,1.65,0,0,0-1.68,1.48Z"></path><path d="M1621,743.65h1.76v1.08a2.21,2.21,0,0,1,2-1.19,2.14,2.14,0,0,1,2.2,1.33,2.63,2.63,0,0,1,2.34-1.33,2.33,2.33,0,0,1,2.52,2.38v4.79h-1.76v-4.3a1.23,1.23,0,0,0-1.29-1.37c-.95,0-1.5.83-1.5,2.07v3.6h-1.77v-4.3a1.2,1.2,0,0,0-1.26-1.37c-1,0-1.51.84-1.51,2.09v3.58H1621Z"></path><path d="M1640.28,747.64H1635a1.8,1.8,0,0,0,1.85,1.7,1.51,1.51,0,0,0,1.6-1.08l1.65.45a3.14,3.14,0,0,1-3.28,2.11,3.49,3.49,0,0,1-3.58-3.64,3.41,3.41,0,0,1,3.48-3.64,3.37,3.37,0,0,1,3.55,3.4C1640.31,747.2,1640.29,747.5,1640.28,747.64Zm-1.86-1.28a1.55,1.55,0,0,0-1.66-1.48,1.66,1.66,0,0,0-1.68,1.48Z"></path><path d="M1641.7,743.65h1.77v1.07a2.64,2.64,0,0,1,2.24-1.18,2.42,2.42,0,0,1,2.58,2.55v4.62h-1.77v-4.2a1.29,1.29,0,0,0-1.34-1.4c-1.08,0-1.71.92-1.71,2.51v3.09h-1.77Z"></path><path d="M1652.88,750.82a2.26,2.26,0,0,1-2.5-2.42v-3.26h-1.19v-1.49h1.19v-2.07h1.77v2.07h1.78v1.49h-1.78v3.09c0,.67.36,1,.91,1a1.87,1.87,0,0,0,.83-.17l.12,1.54A3.23,3.23,0,0,1,1652.88,750.82Z"></path><path d="M1582.8,763.21v4.3h-1.71v-1a2.46,2.46,0,0,1-2.12,1.13,2.15,2.15,0,0,1-2.35-2.1c0-1.38,1.05-2.13,3.15-2.35l1.32-.13V763a1.26,1.26,0,0,0-1.4-1.29,1.33,1.33,0,0,0-1.4,1.24l-1.57-.28a2.84,2.84,0,0,1,3-2.3C1581.54,760.34,1582.8,761.33,1582.8,763.21Zm-1.71,1.25v-.16l-1.35.16c-.94.11-1.41.5-1.41,1s.39.85,1,.85A1.71,1.71,0,0,0,1581.09,764.46Z"></path><path d="M1584.58,760.45h1.77v1.07a2.64,2.64,0,0,1,2.24-1.18,2.42,2.42,0,0,1,2.58,2.55v4.62h-1.77v-4.2a1.29,1.29,0,0,0-1.34-1.4c-1.08,0-1.71.92-1.71,2.51v3.09h-1.77Z"></path><path d="M1592.56,764c0-2.16,1.25-3.64,3.34-3.64a2.53,2.53,0,0,1,2,.9v-3.65h1.77v9.92h-1.77v-.81a2.35,2.35,0,0,1-2,.92C1593.81,767.62,1592.56,766.14,1592.56,764Zm5.5,0a1.88,1.88,0,1,0-1.88,2.12A1.89,1.89,0,0,0,1598.06,764Z"></path><path d="M1606.76,757.59v1.83h-1.9v-1.83Zm-1.85,2.86h1.77v7.06h-1.77Z"></path><path d="M1608.45,760.45h1.77v1.08a2.21,2.21,0,0,1,2-1.19,2.14,2.14,0,0,1,2.2,1.33,2.63,2.63,0,0,1,2.34-1.33,2.33,2.33,0,0,1,2.52,2.38v4.79h-1.77v-4.3a1.22,1.22,0,0,0-1.28-1.37c-1,0-1.5.83-1.5,2.07v3.6H1613v-4.3a1.21,1.21,0,0,0-1.26-1.37c-1,0-1.51.84-1.51,2.09v3.58h-1.77Z"></path><path d="M1621.08,760.45h1.77v.81a2.56,2.56,0,0,1,2.1-.92c2,0,3.28,1.48,3.28,3.64a3.33,3.33,0,0,1-3.41,3.64,2.52,2.52,0,0,1-2-.81v3.25h-1.77Zm5.39,3.53a1.88,1.88,0,1,0-1.86,2.12A1.88,1.88,0,0,0,1626.47,764Z"></path><path d="M1635.42,763.21v4.3h-1.71v-1a2.44,2.44,0,0,1-2.11,1.13,2.16,2.16,0,0,1-2.36-2.1c0-1.38,1-2.13,3.16-2.35l1.31-.13V763a1.25,1.25,0,0,0-1.4-1.29,1.33,1.33,0,0,0-1.4,1.24l-1.57-.28a2.85,2.85,0,0,1,3-2.3C1634.16,760.34,1635.42,761.33,1635.42,763.21Zm-1.71,1.25v-.16l-1.34.16c-.94.11-1.42.5-1.42,1s.39.85,1,.85A1.71,1.71,0,0,0,1633.71,764.46Z"></path><path d="M1636.83,764a3.45,3.45,0,0,1,3.59-3.64,3,3,0,0,1,3.32,2.44l-1.73.33a1.47,1.47,0,0,0-1.54-1.24c-1.09,0-1.8.82-1.8,2.11s.71,2.12,1.8,2.12a1.45,1.45,0,0,0,1.54-1.21l1.73.35c-.27,1.49-1.54,2.38-3.32,2.38A3.45,3.45,0,0,1,1636.83,764Z"></path><path d="M1648.06,767.62a2.25,2.25,0,0,1-2.49-2.42v-3.26h-1.19v-1.49h1.19v-2.07h1.76v2.07h1.78v1.49h-1.78V765c0,.67.37,1,.91,1a1.85,1.85,0,0,0,.83-.17l.13,1.54A3.25,3.25,0,0,1,1648.06,767.62Z"></path><path d="M284,719.58a3.45,3.45,0,1,1,3.45,3.58A3.4,3.4,0,0,1,284,719.58Zm6,0a2.53,2.53,0,1,0-2.52,2.76A2.56,2.56,0,0,0,289.94,719.58Z"></path><path d="M294,720.66v-4.58h.89v4.63a1.78,1.78,0,0,0,3.54,0v-4.63h.88v4.58a2.66,2.66,0,0,1-5.31,0Z"></path><path d="M304.45,716.89h-2.23v-.81h5.36v.81h-2.22v6.19h-.91Z"></path><path d="M310.46,716.08h2.66a2,2,0,1,1,0,4.06h-1.75v2.94h-.91Zm2.63,3.24a1.22,1.22,0,1,0,0-2.43h-1.72v2.43Z"></path><path d="M318.34,720.66v-4.58h.89v4.63a1.78,1.78,0,0,0,3.54,0v-4.63h.88v4.58a2.66,2.66,0,0,1-5.31,0Z"></path><path d="M328.78,716.89h-2.23v-.81h5.36v.81h-2.22v6.19h-.91Z"></path><path d="M718.65,719.58a3.44,3.44,0,1,1,3.45,3.58A3.4,3.4,0,0,1,718.65,719.58Zm6,0a2.52,2.52,0,1,0-2.52,2.76A2.56,2.56,0,0,0,724.6,719.58Z"></path><path d="M728.68,720.66v-4.58h.89v4.63a1.77,1.77,0,0,0,3.53,0v-4.63H734v4.58a2.65,2.65,0,0,1-5.3,0Z"></path><path d="M739.12,716.89h-2.23v-.81h5.35v.81H740v6.19h-.91Z"></path><path d="M745.13,716.08h2.66a2,2,0,1,1,0,4.06H746v2.94h-.91Zm2.62,3.24a1.22,1.22,0,1,0,0-2.43H746v2.43Z"></path><path d="M753,720.66v-4.58h.89v4.63a1.77,1.77,0,0,0,3.53,0v-4.63h.88v4.58a2.65,2.65,0,0,1-5.3,0Z"></path><path d="M763.45,716.89h-2.23v-.81h5.35v.81h-2.22v6.19h-.9Z"></path><path d="M1153.31,719.58a3.45,3.45,0,1,1,3.45,3.58A3.4,3.4,0,0,1,1153.31,719.58Zm6,0a2.53,2.53,0,1,0-2.52,2.76A2.56,2.56,0,0,0,1159.27,719.58Z"></path><path d="M1163.34,720.66v-4.58h.89v4.63a1.78,1.78,0,0,0,3.54,0v-4.63h.88v4.58a2.66,2.66,0,0,1-5.31,0Z"></path><path d="M1173.78,716.89h-2.23v-.81h5.36v.81h-2.22v6.19h-.91Z"></path><path d="M1179.79,716.08h2.66a2,2,0,1,1,0,4.06h-1.75v2.94h-.91Zm2.63,3.24a1.22,1.22,0,1,0,0-2.43h-1.72v2.43Z"></path><path d="M1187.67,720.66v-4.58h.89v4.63a1.78,1.78,0,0,0,3.54,0v-4.63h.88v4.58a2.66,2.66,0,0,1-5.31,0Z"></path><path d="M1198.11,716.89h-2.23v-.81h5.36v.81H1199v6.19h-.91Z"></path><path d="M1586.57,711.58a3.45,3.45,0,1,1,3.45,3.58A3.4,3.4,0,0,1,1586.57,711.58Zm6,0a2.53,2.53,0,1,0-2.52,2.76A2.56,2.56,0,0,0,1592.53,711.58Z"></path><path d="M1596.6,712.66v-4.58h.89v4.63a1.78,1.78,0,0,0,3.54,0v-4.63h.88v4.58a2.66,2.66,0,0,1-5.31,0Z"></path><path d="M1607,708.89h-2.23v-.81h5.36v.81H1608v6.19H1607Z"></path><path d="M1613.05,708.08h2.66a2,2,0,1,1,0,4.06H1614v2.94h-.91Zm2.63,3.24a1.22,1.22,0,1,0,0-2.43H1614v2.43Z"></path><path d="M1620.93,712.66v-4.58h.89v4.63a1.78,1.78,0,0,0,3.54,0v-4.63h.88v4.58a2.66,2.66,0,0,1-5.31,0Z"></path><path d="M1631.37,708.89h-2.23v-.81h5.36v.81h-2.22v6.19h-.91Z"></path><path d="M920,760.11H923a4.9,4.9,0,1,1,0,9.8H920Zm2.87,8.65a3.76,3.76,0,0,0,0-7.52H921.3v7.52Z"></path><path d="M932.26,760.11h6.18v1.13h-4.9v2.89h4v1.15h-4v3.48h5.06v1.15h-6.34Z"></path><path d="M942.16,765a4.64,4.64,0,0,1,4.77-5,4,4,0,0,1,4.13,3.1l-1.26.28a2.74,2.74,0,0,0-2.89-2.24c-2,0-3.43,1.37-3.43,3.88s1.44,3.87,3.43,3.87a2.72,2.72,0,0,0,2.87-2.15l1.28.27a4,4,0,0,1-4.13,3A4.63,4.63,0,0,1,942.16,765Z"></path><path d="M955.41,760.11h1.27v9.8h-1.27Z"></path><path d="M960.89,767l1.21-.39a2.54,2.54,0,0,0,2.55,2.27c1.34,0,2.21-.63,2.21-1.61,0-2.62-5.57-1.25-5.57-4.72,0-1.53,1.37-2.57,3.3-2.57a3.21,3.21,0,0,1,3.43,2.43l-1.16.45a2.12,2.12,0,0,0-2.27-1.74c-1.26,0-2,.55-2,1.43,0,2.24,5.61.78,5.61,4.7,0,1.67-1.42,2.76-3.56,2.76A3.66,3.66,0,0,1,960.89,767Z"></path><path d="M972.51,760.11h1.28v9.8h-1.28Z"></path><path d="M978.17,765a4.83,4.83,0,1,1,4.83,5A4.76,4.76,0,0,1,978.17,765Zm8.35,0a3.54,3.54,0,1,0-3.53,3.87A3.59,3.59,0,0,0,986.52,765Z"></path><path d="M992.21,760.11h1.42l4.94,7.8v-7.8h1.25v9.8H998.4l-4.94-7.77v7.77h-1.25Z"></path><path d="M924,776.91h1.54l3.31,8,3.31-8h1.54v9.8h-1.26v-7.39l-3.06,7.39h-1.06l-3.07-7.39v7.39H924Z"></path><path d="M938.1,781.81a4.83,4.83,0,1,1,4.84,5A4.77,4.77,0,0,1,938.1,781.81Zm8.35,0a3.54,3.54,0,1,0-3.53,3.87A3.59,3.59,0,0,0,946.45,781.81Z"></path><path d="M952.15,776.91h1.54l3.3,8,3.31-8h1.54v9.8h-1.26v-7.39l-3.06,7.39h-1.06l-3.07-7.39v7.39h-1.24Z"></path><path d="M966.66,776.91h6.18V778h-4.9v2.89h4v1.15h-4v3.48h5v1.15h-6.33Z"></path><path d="M977.4,776.91h1.42l4.94,7.8v-7.8H985v9.8h-1.42l-4.94-7.77v7.77H977.4Z"></path><path d="M992.2,778h-3.12v-1.13h7.5V778h-3.11v8.67H992.2Z"></path><path d="M1354.54,760.11h2.92a4.9,4.9,0,1,1,0,9.8h-2.92Zm2.87,8.65a3.76,3.76,0,0,0,0-7.52h-1.61v7.52Z"></path><path d="M1366.76,760.11h6.18v1.13H1368v2.89h4v1.15h-4v3.48h5.06v1.15h-6.34Z"></path><path d="M1376.66,765a4.64,4.64,0,0,1,4.77-5,4,4,0,0,1,4.13,3.1l-1.26.28a2.74,2.74,0,0,0-2.89-2.24c-2,0-3.43,1.37-3.43,3.88s1.44,3.87,3.43,3.87a2.72,2.72,0,0,0,2.87-2.15l1.28.27a4,4,0,0,1-4.13,3A4.63,4.63,0,0,1,1376.66,765Z"></path><path d="M1389.91,760.11h1.27v9.8h-1.27Z"></path><path d="M1395.39,767l1.21-.39a2.54,2.54,0,0,0,2.55,2.27c1.34,0,2.21-.63,2.21-1.61,0-2.62-5.57-1.25-5.57-4.72,0-1.53,1.37-2.57,3.3-2.57a3.21,3.21,0,0,1,3.43,2.43l-1.16.45a2.12,2.12,0,0,0-2.27-1.74c-1.26,0-2,.55-2,1.43,0,2.24,5.61.78,5.61,4.7,0,1.67-1.42,2.76-3.56,2.76A3.66,3.66,0,0,1,1395.39,767Z"></path><path d="M1407,760.11h1.28v9.8H1407Z"></path><path d="M1412.67,765a4.83,4.83,0,1,1,4.83,5A4.76,4.76,0,0,1,1412.67,765Zm8.35,0a3.54,3.54,0,1,0-3.53,3.87A3.59,3.59,0,0,0,1421,765Z"></path><path d="M1426.71,760.11h1.42l4.94,7.8v-7.8h1.25v9.8h-1.42l-4.94-7.77v7.77h-1.25Z"></path><path d="M1358.53,776.91h1.54l3.31,8,3.31-8h1.54v9.8H1367v-7.39l-3.06,7.39h-1.06l-3.07-7.39v7.39h-1.25Z"></path><path d="M1372.6,781.81a4.83,4.83,0,1,1,4.84,5A4.77,4.77,0,0,1,1372.6,781.81Zm8.35,0a3.54,3.54,0,1,0-3.53,3.87A3.59,3.59,0,0,0,1381,781.81Z"></path><path d="M1386.64,776.91h1.55l3.3,8,3.31-8h1.54v9.8h-1.26v-7.39l-3.06,7.39H1391l-3.07-7.39v7.39h-1.25Z"></path><path d="M1401.16,776.91h6.18V778h-4.9v2.89h4v1.15h-4v3.48h5v1.15h-6.33Z"></path><path d="M1411.9,776.91h1.42l4.94,7.8v-7.8h1.25v9.8h-1.42l-4.94-7.77v7.77h-1.25Z"></path><path d="M1426.7,778h-3.12v-1.13h7.5V778H1428v8.67h-1.27Z"></path><path d="M1789,760.11H1792a4.9,4.9,0,1,1,0,9.8H1789Zm2.87,8.65a3.76,3.76,0,0,0,0-7.52h-1.61v7.52Z"></path><path d="M1801.26,760.11h6.18v1.13h-4.9v2.89h4v1.15h-4v3.48h5.06v1.15h-6.34Z"></path><path d="M1811.16,765a4.64,4.64,0,0,1,4.77-5,4,4,0,0,1,4.13,3.1l-1.26.28a2.74,2.74,0,0,0-2.89-2.24c-2,0-3.43,1.37-3.43,3.88s1.44,3.87,3.43,3.87a2.72,2.72,0,0,0,2.87-2.15l1.28.27a4,4,0,0,1-4.13,3A4.63,4.63,0,0,1,1811.16,765Z"></path><path d="M1824.41,760.11h1.27v9.8h-1.27Z"></path><path d="M1829.89,767l1.21-.39a2.54,2.54,0,0,0,2.55,2.27c1.34,0,2.21-.63,2.21-1.61,0-2.62-5.57-1.25-5.57-4.72,0-1.53,1.37-2.57,3.3-2.57a3.21,3.21,0,0,1,3.43,2.43l-1.16.45a2.12,2.12,0,0,0-2.27-1.74c-1.26,0-2,.55-2,1.43,0,2.24,5.61.78,5.61,4.7,0,1.67-1.42,2.76-3.56,2.76A3.66,3.66,0,0,1,1829.89,767Z"></path><path d="M1841.51,760.11h1.28v9.8h-1.28Z"></path><path d="M1847.17,765a4.83,4.83,0,1,1,4.83,5A4.76,4.76,0,0,1,1847.17,765Zm8.35,0a3.54,3.54,0,1,0-3.53,3.87A3.59,3.59,0,0,0,1855.52,765Z"></path><path d="M1861.21,760.11h1.42l4.94,7.8v-7.8h1.25v9.8h-1.42l-4.94-7.77v7.77h-1.25Z"></path><path d="M1793,776.91h1.54l3.31,8,3.31-8h1.54v9.8h-1.26v-7.39l-3.06,7.39h-1.06l-3.07-7.39v7.39H1793Z"></path><path d="M1807.1,781.81a4.83,4.83,0,1,1,4.84,5A4.77,4.77,0,0,1,1807.1,781.81Zm8.35,0a3.54,3.54,0,1,0-3.53,3.87A3.59,3.59,0,0,0,1815.45,781.81Z"></path><path d="M1821.14,776.91h1.55l3.3,8,3.31-8h1.54v9.8h-1.26v-7.39l-3.06,7.39h-1.06l-3.07-7.39v7.39h-1.25Z"></path><path d="M1835.66,776.91h6.18V778h-4.9v2.89h4v1.15h-4v3.48h5v1.15h-6.33Z"></path><path d="M1846.4,776.91h1.42l4.94,7.8v-7.8H1854v9.8h-1.42l-4.94-7.77v7.77h-1.25Z"></path><path d="M1861.2,778h-3.12v-1.13h7.5V778h-3.11v8.67h-1.27Z"></path><path d="M207,535h10.56l-3.84,2.69H202.61V517.93l3.84-2.69h11.23l-3.84,2.69H207v6.62h9.28l-3.84,2.69H207Z"></path><path d="M240.11,515.24v22.4h-2.78l-13.22-15.33v15.33h-2.78V519.08l-1.63-1.89,3.8-2.68,13.83,16.19V515.24Z"></path><path d="M264.65,515.24l-8.06,20.7-3.68,2.63-9.34-21.51,3.84-2.68,7.84,18.4,6.59-17.54Z"></path><path d="M272.46,515.24v22.4h-4.35v-22.4Z"></path><path d="M288.91,535.11a7.6,7.6,0,0,1-12.35-.32l3.81-2.56C282.13,535.11,286.35,536.26,288.91,535.11Zm-8-17.6a2.58,2.58,0,0,0-.61,1.8c.2,4.6,12.84,5,12.84,10.81,0,3.33-4.2,5-4.26,5a3.35,3.35,0,0,0,.86-2.14c0-5.35-12.67-5.28-12.67-11.14C277.1,518.63,280.62,517.54,280.94,517.51Zm7.27,1.83c-2-2-5.25-2.79-7.27-1.83,2.43-3.32,7.94-3.58,11.07-.73Z"></path><path d="M301.55,515.24v22.4H297.2v-22.4Z"></path><path d="M319.41,535.53a10.32,10.32,0,0,0,3.84-.77A10.28,10.28,0,1,1,312,518.09a10.12,10.12,0,0,0-2.81,7.07A10.31,10.31,0,0,0,319.41,535.53Zm3.84-.77a10.37,10.37,0,0,0-7.43-17.47,9.78,9.78,0,0,0-3.84.8,10,10,0,0,1,7.43-3.26,10.36,10.36,0,0,1,3.84,19.93Z"></path><path d="M352.69,515.24v22.4H349.9l-13.21-15.33v15.33H333.9V519.08l-1.63-1.89,3.81-2.68L349.9,530.7V515.24Z"></path><path d="M362.67,515.24v22.4h-4.35v-22.4Z"></path><path d="M387.5,515.24v22.4h-2.78L371.5,522.31v15.33h-2.78V519.08l-1.63-1.89,3.8-2.68,13.83,16.19V515.24Z"></path><path d="M405.29,535.66a6.62,6.62,0,0,0,3.27-.74,9.19,9.19,0,0,1-6.95,3.1,10.11,10.11,0,0,1-10.08-10.3,10.37,10.37,0,0,1,6.4-9.63,10.45,10.45,0,0,0,7.36,17.57Zm2-16.9a10.46,10.46,0,0,0-9.41-.7,10.32,10.32,0,0,1,7.59-3.27,10.09,10.09,0,0,1,5.4,1.51Zm5.25,6.14v7.33l-4,2.69v-10Z"></path><path d="M213.42,573.51a7.6,7.6,0,0,1-12.35-.32l3.81-2.56C206.64,573.51,210.86,574.66,213.42,573.51Zm-8-17.6a2.52,2.52,0,0,0-.61,1.8c.19,4.6,12.83,5,12.83,10.81,0,3.33-4.19,5-4.26,5a3.28,3.28,0,0,0,.87-2.14c0-5.35-12.67-5.28-12.67-11.14C201.62,557,205.14,555.94,205.46,555.91Zm7.26,1.83c-1.95-2-5.25-2.79-7.26-1.83,2.43-3.32,7.93-3.58,11.07-.73Z"></path><path d="M233.87,573.9a10.47,10.47,0,0,0,6.43-2.28,11.63,11.63,0,0,1-9.53,4.8A10.37,10.37,0,0,1,220.27,566a10.27,10.27,0,0,1,6.4-9.53,10.35,10.35,0,0,0,7.2,17.44Zm2-16.74a10.13,10.13,0,0,0-9.25-.7,10.22,10.22,0,0,1,7.52-3.27,10,10,0,0,1,5.31,1.51Z"></path><path d="M247.47,573.35H258L254.19,576H243.12V556.33l3.84-2.69h11.23l-3.84,2.69h-6.88V563h9.28l-3.84,2.69h-5.44Z"></path><path d="M280.62,553.64V576h-2.78l-13.22-15.33V576h-2.78V557.48l-1.63-1.89,3.8-2.68,13.83,16.19V553.64Z"></path><path d="M301,576.9l-3.39-8h-8.32l3.84-2.68h3.33l-3.3-7.72L286.57,576h-2.81l8-20.7,3.71-2.63,5.86,13.51h.06l-.06,0,3.45,7.93Z"></path><path d="M325.93,574l-3.74,2.63-6.5-9.38H312.4V576H308V556.33l3.88-2.69h5.79c6.59,0,8.12,8.06,1.69,10.94,1.92-4.06-.6-8.25-5.53-8.25H312.4v9l1.15-.8h5.82Z"></path><path d="M333.9,553.64V576h-4.35v-22.4Z"></path><path d="M351.76,573.93a10.32,10.32,0,0,0,3.84-.77,10.28,10.28,0,1,1-11.27-16.67,10.12,10.12,0,0,0-2.81,7.07A10.31,10.31,0,0,0,351.76,573.93Zm3.84-.77a10.37,10.37,0,0,0-7.43-17.47,9.78,9.78,0,0,0-3.84.8,10,10,0,0,1,7.43-3.26,10.36,10.36,0,0,1,3.84,19.93Z"></path><path d="M376.65,573.51a7.6,7.6,0,0,1-12.35-.32l3.81-2.56C369.87,573.51,374.09,574.66,376.65,573.51Zm-8-17.6a2.52,2.52,0,0,0-.61,1.8c.19,4.6,12.83,5,12.83,10.81,0,3.33-4.19,5-4.26,5a3.28,3.28,0,0,0,.87-2.14c0-5.35-12.67-5.28-12.67-11.14C364.85,557,368.37,555.94,368.69,555.91Zm7.26,1.83c-1.95-2-5.25-2.79-7.26-1.83,2.43-3.32,7.93-3.58,11.07-.73Z"></path><path d="M200.53,484.44c0-3.87,1.66-6.44,4.83-6.44s4.82,2.57,4.82,6.44-1.69,6.45-4.82,6.45S200.53,488.31,200.53,484.44Zm8,0c0-3-1.1-5-3.13-5s-3.16,2-3.16,5,1.09,5,3.16,5S208.49,487.47,208.49,484.44Z"></path><path d="M217.87,480.19a5.74,5.74,0,0,1-3,1.41v-1.46a5.63,5.63,0,0,0,3.24-2h1.29v12.6h-1.54Z"></path><rect class="cls-2" x="200.56" y="592" width="186" height="10"></rect><path d="M1078.44,525.61c0,6.17-6.08,9.34-6.08,9.34a10.07,10.07,0,0,0,2.5-6.88c0-6.05-4.48-10.14-11.3-10.14H1063v17h9.34l-3.87,2.69h-9.82V517.93l3.84-2.69h4.89C1073.52,515.24,1078.44,519.27,1078.44,525.61Z"></path><path d="M1086.83,535h10.56l-3.84,2.69h-11.07V517.93l3.84-2.69h11.23l-3.84,2.69h-6.88v6.62h9.28l-3.84,2.69h-5.44Z"></path><path d="M1111.12,535.11a7.61,7.61,0,0,1-12.36-.32l3.81-2.56C1104.33,535.11,1108.56,536.26,1111.12,535.11Zm-8-17.6a2.58,2.58,0,0,0-.61,1.8c.19,4.6,12.83,5,12.83,10.81,0,3.33-4.19,5-4.25,5A3.35,3.35,0,0,0,1112,533c0-5.35-12.67-5.28-12.67-11.14C1099.31,518.63,1102.83,517.54,1103.15,517.51Zm7.26,1.83c-2-2-5.25-2.79-7.26-1.83,2.43-3.32,7.93-3.58,11.07-.73Z"></path><path d="M1123.76,515.24v22.4h-4.36v-22.4Z"></path><path d="M1141.55,535.66a6.58,6.58,0,0,0,3.26-.74,9.17,9.17,0,0,1-6.94,3.1,10.1,10.1,0,0,1-10.08-10.3,10.36,10.36,0,0,1,6.4-9.63,10.44,10.44,0,0,0,7.36,17.57Zm2-16.9a10.44,10.44,0,0,0-9.4-.7,10.3,10.3,0,0,1,7.58-3.27,10.1,10.1,0,0,1,5.41,1.51Zm5.25,6.14v7.33l-4,2.69v-10Z"></path><path d="M1172.71,515.24v22.4h-2.78l-13.21-15.33v15.33h-2.79V519.08l-1.63-1.89,3.81-2.68,13.82,16.19V515.24Z"></path><path d="M1206.38,515.24l-8.07,20.7-3.68,2.63-9.34-21.51,3.84-2.68,7.84,18.4,6.59-17.54Z"></path><path d="M1221.67,538.5l-3.39-8H1210l3.84-2.68h3.33l-3.3-7.72-6.56,17.54h-2.81l8-20.7,3.71-2.63,5.86,13.51h.06l-.06,0,3.45,7.93Z"></path><path d="M1243.62,535l-3.83,2.69h-11.08v-22.4h4.36V535Z"></path><path d="M1257.58,535.82a9.16,9.16,0,0,0,4.22-1.12,9.83,9.83,0,0,1-7.23,3.48c-4.13,0-7.71-3.26-7.71-9.24v-13.7h4.35v12C1251.31,532.78,1253.8,535.78,1257.58,535.82Zm8.57-20.58v16.51l-4.35,3V515.24Z"></path><path d="M1276.14,535h10.56l-3.84,2.69h-11.07V517.93l3.84-2.69h11.23l-3.84,2.69h-6.88v6.62h9.28l-3.84,2.69h-5.44Z"></path><path d="M1074.64,559.3a6.77,6.77,0,0,1-4.32,5.92c2.43-4.06-.42-8.89-5.38-8.89H1063v8.89h7.3l-3.88,2.69H1063V576h-4.35V556.33l3.84-2.69h6.3A5.72,5.72,0,0,1,1074.64,559.3Z"></path><path d="M1095.92,574l-3.75,2.63-6.49-9.38h-3.3V576H1078V556.33l3.87-2.69h5.79c6.59,0,8.13,8.06,1.7,10.94,1.92-4.06-.61-8.25-5.54-8.25h-1.44v9l1.15-.8h5.83Z"></path><path d="M1111.12,573.93a10.32,10.32,0,0,0,3.84-.77,10.28,10.28,0,1,1-11.27-16.67,10.12,10.12,0,0,0-2.81,7.07A10.31,10.31,0,0,0,1111.12,573.93Zm3.84-.77a10.37,10.37,0,0,0-7.43-17.47,9.78,9.78,0,0,0-3.84.8,10,10,0,0,1,7.43-3.26,10.36,10.36,0,0,1,3.84,19.93Z"></path><path d="M1141.16,559.3a6.76,6.76,0,0,1-4.32,5.92c2.44-4.06-.41-8.89-5.37-8.89h-1.92v8.89h7.29l-3.87,2.69h-3.42V576h-4.35V556.33l3.84-2.69h6.3A5.7,5.7,0,0,1,1141.16,559.3Z"></path><path d="M1156.59,573.93a10.32,10.32,0,0,0,3.84-.77,10.22,10.22,0,0,1-7.43,3.26,10.36,10.36,0,0,1-3.84-19.93,10.12,10.12,0,0,0-2.81,7.07A10.32,10.32,0,0,0,1156.59,573.93Zm3.84-.77a10.37,10.37,0,0,0-7.43-17.47,9.78,9.78,0,0,0-3.84.8,10,10,0,0,1,7.43-3.26,10.36,10.36,0,0,1,3.84,19.93Z"></path><path d="M1181.48,573.51a7.6,7.6,0,0,1-12.35-.32l3.81-2.56C1174.7,573.51,1178.92,574.66,1181.48,573.51Zm-8-17.6a2.56,2.56,0,0,0-.61,1.8c.19,4.6,12.83,5,12.83,10.81,0,3.33-4.19,5-4.26,5a3.28,3.28,0,0,0,.87-2.14c0-5.35-12.67-5.28-12.67-11.14C1169.68,557,1173.2,555.94,1173.52,555.91Zm7.26,1.83c-2-2-5.25-2.79-7.26-1.83,2.43-3.32,7.93-3.58,11.07-.73Z"></path><path d="M1194.12,553.64V576h-4.35v-22.4Z"></path><path d="M1213.36,556.33h-4.64V576h-4.39V556.33h-7.71l3.87-2.69h16.74Z"></path><path d="M1223.6,553.64V576h-4.35v-22.4Z"></path><path d="M1241.45,573.93a10.24,10.24,0,0,0,3.84-.77,10.2,10.2,0,0,1-7.42,3.26,10.36,10.36,0,0,1-3.84-19.93,10.12,10.12,0,0,0-2.82,7.07A10.32,10.32,0,0,0,1241.45,573.93Zm3.84-.77a10.36,10.36,0,0,0-7.42-17.47,9.7,9.7,0,0,0-3.84.8,10,10,0,0,1,7.42-3.26,10.36,10.36,0,0,1,3.84,19.93Z"></path><path d="M1274.73,553.64V576H1272l-13.22-15.33V576H1256V557.48l-1.63-1.89,3.8-2.68L1272,569.1V553.64Z"></path><path d="M1291.18,573.51a7.6,7.6,0,0,1-12.35-.32l3.81-2.56C1284.4,573.51,1288.62,574.66,1291.18,573.51Zm-8-17.6a2.56,2.56,0,0,0-.61,1.8c.2,4.6,12.84,5,12.84,10.81,0,3.33-4.2,5-4.26,5a3.35,3.35,0,0,0,.86-2.14c0-5.35-12.67-5.28-12.67-11.14C1279.37,557,1282.89,555.94,1283.21,555.91Zm7.27,1.83c-2-2-5.25-2.79-7.27-1.83,2.43-3.32,7.94-3.58,11.07-.73Z"></path><path d="M1056.59,484.44c0-3.87,1.66-6.44,4.83-6.44s4.82,2.57,4.82,6.44-1.69,6.45-4.82,6.45S1056.59,488.31,1056.59,484.44Zm8,0c0-3-1.1-5-3.13-5s-3.16,2-3.16,5,1.09,5,3.16,5S1064.55,487.47,1064.55,484.44Z"></path><path d="M1070.65,487.25l1.55-.23a2.75,2.75,0,0,0,3,2.39,2.59,2.59,0,0,0,2.88-2.63,2.47,2.47,0,0,0-2.79-2.59,2.64,2.64,0,0,0-1.39.4l-.7-1,4-3.94H1071v-1.46h8v1.42l-3.59,3.5a3.6,3.6,0,0,1,4.25,3.76c0,2.43-1.8,4.07-4.57,4.07C1072.67,490.89,1070.88,489.45,1070.65,487.25Z"></path><rect class="cls-3" x="1056.01" y="592" width="242" height="10"></rect><path d="M1517.09,525.61c0,6.17-6.08,9.34-6.08,9.34a10.07,10.07,0,0,0,2.5-6.88c0-6.05-4.48-10.14-11.29-10.14h-.55v17H1511l-3.87,2.69h-9.82V517.93l3.84-2.69h4.9C1512.17,515.24,1517.09,519.27,1517.09,525.61Z"></path><path d="M1525.48,535H1536l-3.84,2.69h-11.07V517.93l3.84-2.69h11.23l-3.84,2.69h-6.88v6.62h9.28l-3.84,2.69h-5.44Z"></path><path d="M1554.34,535l-3.84,2.69h-11.07v-22.4h4.35V535Z"></path><path d="M1561.77,515.24v22.4h-4.35v-22.4Z"></path><path d="M1586.31,515.24l-8.06,20.7-3.68,2.63-9.35-21.51,3.84-2.68,7.84,18.4,6.59-17.54Z"></path><path d="M1593.48,535H1604l-3.84,2.69h-11.07V517.93l3.84-2.69h11.23l-3.84,2.69h-6.88v6.62h9.28l-3.84,2.69h-5.44Z"></path><path d="M1625.35,535.62l-3.74,2.63-6.5-9.38h-3.3v8.77h-4.38V517.93l3.87-2.69h5.79c6.6,0,8.13,8.06,1.7,10.94,1.92-4.06-.61-8.25-5.54-8.25h-1.44V527l1.16-.8h5.82Z"></path><path d="M1633.32,515.24v22.4H1629v-22.4Z"></path><path d="M1658.15,515.24v22.4h-2.78l-13.22-15.33v15.33h-2.78V519.08l-1.64-1.89,3.81-2.68,13.83,16.19V515.24Z"></path><path d="M1675.94,535.66a6.62,6.62,0,0,0,3.27-.74,9.19,9.19,0,0,1-7,3.1,10.11,10.11,0,0,1-10.08-10.3,10.37,10.37,0,0,1,6.4-9.63,10.45,10.45,0,0,0,7.36,17.57Zm2-16.9a10.46,10.46,0,0,0-9.41-.7,10.32,10.32,0,0,1,7.59-3.27,10.09,10.09,0,0,1,5.4,1.51Zm5.25,6.14v7.33l-4,2.69v-10Z"></path><path d="M1512.23,573.35l-3.84,2.69h-11.07v-22.4h4.35v19.71Z"></path><path d="M1519.66,553.64V576h-4.36v-22.4Z"></path><path d="M1544.2,553.64l-8.07,20.7-3.67,2.63-9.35-21.51,3.84-2.68,7.84,18.4,6.59-17.54Z"></path><path d="M1551.37,573.35h10.56l-3.84,2.69H1547V556.33l3.84-2.69h11.23l-3.84,2.69h-6.88V563h9.28l-3.84,2.69h-5.44Z"></path><path d="M1585.57,573.51a7.6,7.6,0,0,1-12.35-.32l3.81-2.56C1578.79,573.51,1583,574.66,1585.57,573.51Zm-8-17.6a2.56,2.56,0,0,0-.61,1.8c.19,4.6,12.83,5,12.83,10.81,0,3.33-4.19,5-4.26,5a3.28,3.28,0,0,0,.87-2.14c0-5.35-12.67-5.28-12.67-11.14C1573.77,557,1577.29,555.94,1577.61,555.91Zm7.26,1.83c-1.95-2-5.25-2.79-7.26-1.83,2.43-3.32,7.93-3.58,11.07-.73Z"></path><path d="M1598.21,573.35h10.56l-3.84,2.69h-11.07V556.33l3.84-2.69h11.23l-3.84,2.69h-6.88V563h9.28l-3.84,2.69h-5.44Z"></path><path d="M1630.08,574l-3.74,2.63-6.49-9.38h-3.3V576h-4.38V556.33l3.87-2.69h5.79c6.59,0,8.13,8.06,1.7,10.94,1.92-4.06-.61-8.25-5.54-8.25h-1.44v9l1.15-.8h5.83Z"></path><path d="M1653.09,553.64l-8.06,20.7-3.68,2.63L1632,555.46l3.84-2.68,7.84,18.4,6.59-17.54Z"></path><path d="M1660.9,553.64V576h-4.35v-22.4Z"></path><path d="M1678.53,573.9a10.44,10.44,0,0,0,6.43-2.28,11.63,11.63,0,0,1-9.53,4.8,10.37,10.37,0,0,1-10.5-10.43,10.27,10.27,0,0,1,6.4-9.53,10.35,10.35,0,0,0,7.2,17.44Zm2-16.74a10.13,10.13,0,0,0-9.25-.7,10.22,10.22,0,0,1,7.52-3.27,9.94,9.94,0,0,1,5.31,1.51Z"></path><path d="M1692.13,573.35h10.56l-3.84,2.69h-11.07V556.33l3.84-2.69h11.23l-3.84,2.69h-6.88V563h9.28l-3.84,2.69h-5.44Z"></path><path d="M1716.42,573.51a7.6,7.6,0,0,1-12.35-.32l3.81-2.56C1709.64,573.51,1713.86,574.66,1716.42,573.51Zm-8-17.6a2.56,2.56,0,0,0-.61,1.8c.2,4.6,12.84,5,12.84,10.81,0,3.33-4.2,5-4.26,5a3.35,3.35,0,0,0,.86-2.14c0-5.35-12.67-5.28-12.67-11.14C1704.61,557,1708.13,555.94,1708.45,555.91Zm7.27,1.83c-2-2-5.25-2.79-7.27-1.83,2.43-3.32,7.94-3.58,11.07-.73Z"></path><path d="M1495.24,484.44c0-3.87,1.66-6.44,4.83-6.44s4.82,2.57,4.82,6.44-1.69,6.45-4.82,6.45S1495.24,488.31,1495.24,484.44Zm8,0c0-3-1.1-5-3.13-5s-3.15,2-3.15,5,1.08,5,3.15,5S1503.2,487.47,1503.2,484.44Z"></path><path d="M1516.23,487.66h-6.64v-1.47l6.39-8.05h1.89v8.05h1.82v1.47h-1.82v3.08h-1.64Zm0-1.47V480l-4.88,6.18Z"></path><rect class="cls-4" x="1494.85" y="592" width="226" height="10"></rect><path d="M649.05,518h10.56l-3.84,2.69H644.7V500.93l3.84-2.69h11.23l-3.84,2.69h-6.88v6.62h9.28l-3.84,2.69h-5.44Z"></path><path d="M677.46,521.38,670.52,512l-5.82,8.61h-3.46L669,509.92,661.59,500l3.84-2.69,6.34,8.55,5.21-7.62h3.33L673.37,508l7.93,10.69Z"></path><path d="M700.89,503.9a6.77,6.77,0,0,1-4.32,5.92c2.43-4.06-.42-8.89-5.38-8.89h-1.92v8.89h7.3l-3.87,2.69h-3.43v8.13h-4.35V500.93l3.84-2.69h6.3A5.71,5.71,0,0,1,700.89,503.9Z"></path><path d="M719.16,518l-3.84,2.69H704.25v-22.4h4.35V518Z"></path><path d="M732.76,518.53a10.28,10.28,0,0,0,3.84-.77,10.21,10.21,0,0,1-7.42,3.26,10.36,10.36,0,0,1-3.84-19.93,10.12,10.12,0,0,0-2.82,7.07A10.32,10.32,0,0,0,732.76,518.53Zm3.84-.77a10.36,10.36,0,0,0-7.42-17.47,9.7,9.7,0,0,0-3.84.8,10,10,0,0,1,7.42-3.26,10.36,10.36,0,0,1,3.84,19.93Z"></path><path d="M764.92,518.62l-3.74,2.63-6.5-9.38h-3.3v8.77H747V500.93l3.87-2.69h5.79c6.6,0,8.13,8.06,1.7,10.94,1.92-4.06-.61-8.25-5.54-8.25h-1.44V510l1.16-.8h5.82Z"></path><path d="M772.89,498.24v22.4h-4.35v-22.4Z"></path><path d="M797.72,498.24v22.4h-2.79l-13.21-15.33v15.33h-2.78V502.08l-1.64-1.89,3.81-2.68,13.82,16.19V498.24Z"></path><path d="M815.51,518.66a6.55,6.55,0,0,0,3.26-.74,9.15,9.15,0,0,1-6.94,3.1,10.11,10.11,0,0,1-10.08-10.3,10.37,10.37,0,0,1,6.4-9.63,10.45,10.45,0,0,0,7.36,17.57Zm2-16.9a10.46,10.46,0,0,0-9.41-.7,10.3,10.3,0,0,1,7.58-3.27,10.1,10.1,0,0,1,5.41,1.51Zm5.25,6.14v7.33l-4,2.69v-10Z"></path><path d="M649.05,546.24h9.28l-3.84,2.69h-5.44V559H644.7V539.33l3.84-2.69h11.07l-3.84,2.69h-6.72Z"></path><path d="M673.46,557.22a9.2,9.2,0,0,0,4.23-1.12,9.83,9.83,0,0,1-7.23,3.48c-4.13,0-7.71-3.26-7.71-9.24v-13.7h4.35v12C667.19,554.18,669.69,557.18,673.46,557.22ZM682,536.64v16.51l-4.35,3V536.64Z"></path><path d="M701.75,539.33h-4.64V559h-4.38V539.33H685l3.87-2.69h16.73Z"></path><path d="M718.68,557.22a9.13,9.13,0,0,0,4.22-1.12,9.81,9.81,0,0,1-7.23,3.48c-4.13,0-7.71-3.26-7.71-9.24v-13.7h4.35v12C712.41,554.18,714.9,557.18,718.68,557.22Zm8.58-20.58v16.51l-4.36,3V536.64Z"></path><path d="M750.81,557l-3.75,2.63-6.49-9.38h-3.3V559h-4.38V539.33l3.87-2.69h5.79c6.59,0,8.13,8.06,1.7,10.94,1.92-4.06-.61-8.25-5.54-8.25h-1.44v9l1.15-.8h5.83Z"></path><path d="M758.78,556.35h10.56L765.5,559H754.42V539.33l3.84-2.69H769.5l-3.84,2.69h-6.88V546h9.28l-3.84,2.69h-5.44Z"></path><path d="M656.7,595.3a10.49,10.49,0,0,0,6.43-2.28,11.67,11.67,0,0,1-9.54,4.8,10.36,10.36,0,0,1-10.49-10.43,10.25,10.25,0,0,1,6.4-9.53,10.35,10.35,0,0,0,7.2,17.44Zm2-16.74a10.11,10.11,0,0,0-9.24-.7,10.22,10.22,0,0,1,7.52-3.27,9.9,9.9,0,0,1,5.31,1.51Z"></path><path d="M677.85,595.33a10.32,10.32,0,0,0,3.84-.77,10.28,10.28,0,1,1-11.27-16.67,10.16,10.16,0,0,0-2.81,7.07A10.32,10.32,0,0,0,677.85,595.33Zm3.84-.77a10.37,10.37,0,0,0-7.43-17.47,9.78,9.78,0,0,0-3.84.8,10,10,0,0,1,7.43-3.27,10.36,10.36,0,0,1,3.84,19.94Z"></path><path d="M711.13,575v22.4h-2.79l-13.21-15.33v15.33h-2.78V578.88L690.71,577l3.81-2.68,13.82,16.19V575Z"></path><path d="M728.76,595.3a10.47,10.47,0,0,0,6.43-2.28,11.63,11.63,0,0,1-9.53,4.8,10.37,10.37,0,0,1-10.5-10.43,10.27,10.27,0,0,1,6.4-9.53,10.35,10.35,0,0,0,7.2,17.44Zm2-16.74a10.13,10.13,0,0,0-9.25-.7,10.22,10.22,0,0,1,7.52-3.27,9.88,9.88,0,0,1,5.31,1.51Z"></path><path d="M742.36,594.75h10.56l-3.84,2.69H738V577.73l3.84-2.69h11.23l-3.84,2.69h-6.88v6.62h9.28L747.8,587h-5.44Z"></path><path d="M772.28,580.7a6.77,6.77,0,0,1-4.32,5.92c2.43-4.06-.42-8.89-5.38-8.89h-1.92v8.89H768l-3.87,2.69h-3.43v8.13h-4.35V577.73l3.84-2.69h6.31A5.7,5.7,0,0,1,772.28,580.7Z"></path><path d="M790.36,577.73h-4.64v19.71h-4.38V577.73h-7.72L777.5,575h16.73Z"></path><path d="M805.46,594.91a7.6,7.6,0,0,1-12.35-.32l3.81-2.56C798.68,594.91,802.9,596.06,805.46,594.91Zm-8-17.6a2.51,2.51,0,0,0-.61,1.79c.19,4.61,12.83,5,12.83,10.82,0,3.33-4.19,5-4.26,5a3.28,3.28,0,0,0,.87-2.14c0-5.35-12.67-5.28-12.67-11.14C793.66,578.43,797.18,577.34,797.5,577.31Zm7.26,1.83c-2-2-5.25-2.79-7.26-1.83,2.43-3.32,7.93-3.58,11.07-.73Z"></path><path d="M642.62,467.44c0-3.87,1.66-6.44,4.82-6.44s4.83,2.57,4.83,6.44-1.69,6.45-4.83,6.45S642.62,471.31,642.62,467.44Zm8,0c0-3-1.1-5-3.14-5s-3.15,2-3.15,5,1.08,5,3.15,5S650.58,470.47,650.58,467.44Z"></path><path d="M657.11,472.32l4.74-4.09c1.47-1.27,2.1-2.32,2.1-3.45a2.22,2.22,0,0,0-2.41-2.33c-1.77,0-2.76,1.25-2.58,3.12l-1.58-.11a3.93,3.93,0,0,1,4.16-4.46c2.48,0,4.1,1.49,4.1,3.78,0,1.53-.84,2.93-2.79,4.57l-3.42,2.92h6.21v1.47h-8.51Z"></path><rect class="cls-5" x="641.93" y="609" width="173" height="10"></rect><polygon points="167.64 542 154.94 534.67 154.94 549.33 167.64 542"></polygon><path d="M163.63,803.17H18.52L91.07,677.5Zm-143.38-1H161.89L91.07,679.5Z"></path><path d="M597.63,803.17H452.52L525.07,677.5Zm-143.38-1H595.89L525.07,679.5Z"></path><path d="M1031.63,803.17H886.52L959.07,677.5Zm-143.38-1h141.64L959.07,679.5Z"></path><path d="M1465.63,803.17H1320.52l.43-.75,72.12-124.92.43.75Zm-143.38-1h141.64L1393.07,679.5Z"></path><path d="M1901.48,803.17H1756.37l.44-.75,72.12-124.92.43.75Zm-143.37-1h141.64L1828.93,679.5Z"></path><polygon points="461.12 542 448.42 534.67 448.42 549.33 461.12 542"></polygon><polygon points="601.84 542 589.14 534.67 589.14 549.33 601.84 542"></polygon><polygon points="892.55 542 879.85 534.67 879.85 549.33 892.55 542"></polygon><polygon points="1033.27 542 1020.57 534.67 1020.57 549.33 1033.27 542"></polygon><polygon points="1330.42 542 1317.72 534.67 1317.72 549.33 1330.42 542"></polygon><polygon points="1471.14 542 1458.43 534.67 1458.43 549.33 1471.14 542"></polygon><polygon points="1764.92 542 1752.22 534.67 1752.22 549.33 1764.92 542"></polygon><path d="M51,760.11H54a4.9,4.9,0,1,1,0,9.8H51Zm2.87,8.65a3.76,3.76,0,0,0,0-7.52H52.3v7.52Z"></path><path d="M63.26,760.11h6.18v1.13h-4.9v2.89h4v1.15h-4v3.48H69.6v1.15H63.26Z"></path><path d="M73.16,765a4.64,4.64,0,0,1,4.77-5,4,4,0,0,1,4.13,3.1l-1.26.28a2.74,2.74,0,0,0-2.89-2.24c-2,0-3.43,1.37-3.43,3.88s1.44,3.87,3.43,3.87a2.72,2.72,0,0,0,2.87-2.15l1.28.27a4,4,0,0,1-4.13,3A4.63,4.63,0,0,1,73.16,765Z"></path><path d="M86.41,760.11h1.27v9.8H86.41Z"></path><path d="M91.89,767l1.21-.39a2.54,2.54,0,0,0,2.55,2.27c1.34,0,2.21-.63,2.21-1.61,0-2.62-5.57-1.25-5.57-4.72,0-1.53,1.37-2.57,3.3-2.57A3.21,3.21,0,0,1,99,762.42l-1.16.45a2.12,2.12,0,0,0-2.27-1.74c-1.26,0-2,.55-2,1.43,0,2.24,5.61.78,5.61,4.7,0,1.67-1.42,2.76-3.56,2.76A3.66,3.66,0,0,1,91.89,767Z"></path><path d="M103.51,760.11h1.28v9.8h-1.28Z"></path><path d="M109.17,765a4.83,4.83,0,1,1,4.83,5A4.76,4.76,0,0,1,109.17,765Zm8.35,0a3.54,3.54,0,1,0-3.53,3.87A3.59,3.59,0,0,0,117.52,765Z"></path><path d="M123.21,760.11h1.42l4.94,7.8v-7.8h1.25v9.8H129.4l-4.94-7.77v7.77h-1.25Z"></path><path d="M55,776.91h1.54l3.31,8,3.31-8h1.54v9.8H63.47v-7.39l-3.06,7.39H59.35l-3.07-7.39v7.39H55Z"></path><path d="M69.1,781.81a4.83,4.83,0,1,1,4.84,5A4.77,4.77,0,0,1,69.1,781.81Zm8.35,0a3.54,3.54,0,1,0-3.53,3.87A3.59,3.59,0,0,0,77.45,781.81Z"></path><path d="M83.15,776.91h1.54l3.3,8,3.31-8h1.54v9.8H91.58v-7.39l-3.06,7.39H87.46l-3.07-7.39v7.39H83.15Z"></path><path d="M97.66,776.91h6.18V778h-4.9v2.89h4v1.15h-4v3.48h5v1.15H97.66Z"></path><path d="M108.4,776.91h1.42l4.94,7.8v-7.8H116v9.8h-1.42l-4.94-7.77v7.77H108.4Z"></path><path d="M123.2,778h-3.12v-1.13h7.5V778h-3.11v8.67H123.2Z"></path></svg> 